<?xml version="1.0" encoding="utf-8"?>
<!-- Generator: Adobe Illustrator 22.1.0, SVG Export Plug-In . SVG Version: 6.00 Build 0)  -->
<svg version="1.1" xmlns="http://www.w3.org/2000/svg" xmlns:xlink="http://www.w3.org/1999/xlink" x="0px" y="0px"
	 viewBox="0 0 48 48" style="enable-background:new 0 0 48 48;" xml:space="preserve">
<style type="text/css">
	.st0{fill:#FFFFFF;}
	.st1{fill:#FFFFFF;stroke:#F2F2F2;stroke-width:3;stroke-miterlimit:10;}
	.st2{fill:#FFFFFF;stroke:#F2F2F2;stroke-miterlimit:10;}
	.st3{fill:#C7A2E6;}
	.st4{fill:#F2F2F2;}
	.st5{fill:#CACACC;}
</style>
<g id="Layer_1">
</g>
<g id="Layer_2">
	<g>
		<polygon class="st0" points="45,-78 64,-78 53,-57 57,-32 45,-32 		"/>
		<polygon class="st0" points="97,-78 78,-78 89,-56 85,-32 97,-32 		"/>
	</g>
	<path class="st1" d="M79.7-69c0,1.4-3.9,5-8.7,5s-8.7-3.6-8.7-5"/>
	<path class="st1" d="M79.7-69c0,1.4,3.9,5,8.7,5s8.7-3.6,8.7-5v-13.5H45V-69c0,1.4,3.9,5,8.7,5s8.7-3.6,8.7-5"/>
	<path class="st1" d="M138-85c0,1.4-3.6,5-8,5c-4.4,0-8-3.6-8-5"/>
	<g>
		<path class="st0" d="M43,6.8c-1.4-1.4-3.9-1-5.6,0.7L18.6,24.9c-0.1,0.1-0.1,0.2-0.2,0.2c1.7,0.3,3.3,1.1,4.5,2.3
			c1.1,1.1,1.8,2.4,2.1,3.8l17.3-18.7C44,10.7,44.3,8.2,43,6.8z"/>
		<path class="st0" d="M19.3,39.2c-4.2,4.2-14.9,2.3-14.9,2.3s2.8-1.7,5.4-9c2.8-5.3,8.5-6,11.3-3.2S22.4,36,19.3,39.2z"/>
	</g>
	<path class="st0" d="M-11.4-59L-11.4-59c-1.9,0-4.5-1.6-4.5-3.5l1-20c0-1.9,1.6-3.5,3.5-3.5h0c1.9,0,3.5,1.6,3.5,3.5l1,20
		C-6.9-60.6-9.5-59-11.4-59z"/>
	<path class="st2" d="M-6.6-55c0,4.6-7,9.5-7,9.5s0.2-2.6-2-8c-2-5,2-8,4.5-8S-6.6-58.5-6.6-55z"/>
	<path class="st3" d="M-76.6-67.5c1.6,1.5,2,8,2,8s7-4.9,7-9.5c0,0-1.4,2-3.4,2S-76.6-67.5-76.6-67.5z"/>
	<path class="st3" d="M-99.2-68.9c0.9,3,0.6,4.4,0.6,4.4s3.8-2.7,5.8-5.9l-1.7,0.8c-1,0.5-2.1,0.7-3.2,0.7L-99.2-68.9z"/>
	<g>
		<path class="st0" d="M-44.4-65L-44.4-65c-1.5,0-3.5-1.6-3.5-3.5l0.8-20c0-1.9,1.2-3.5,2.7-3.5h0c1.5,0,2.7,1.6,2.7,3.5l0.8,20
			C-40.9-66.6-42.9-65-44.4-65z"/>
		<g>
			<path class="st4" d="M-47.6-51.7c0-0.1,0.4-2.4-1.9-7.3l0-0.1l0-0.1c-0.8-2.5-0.4-5,0.9-6.9c1.1-1.5,2.8-2.4,4.5-2.4
				c3.3,0,5.5,2.9,5.5,7.5c0,5.1-7.1,10.1-7.4,10.3l-2.2,1.5L-47.6-51.7z"/>
		</g>
		<path class="st0" d="M-39.6-61c0,4.6-7,9.5-7,9.5s0.6-2.5-2-8c-1.4-4.5,1.4-8,4.5-8C-41-67.5-39.6-64.5-39.6-61z"/>
	</g>
	<g>
		<g>
			<path class="st0" d="M-28.9-1.8L-28.9-1.8c-1-1-1.3-3.3,0-4.6l13.5-12.5c1.3-1.3,3.1-1.5,4.1-0.5l0,0c1,1,0.7,2.8-0.5,4.1
				L-24.3-1.8C-25.6-0.5-27.9-0.8-28.9-1.8z"/>
			<g>
				<path class="st5" d="M-35.2,7.7c-2.3,0-4.2-0.3-4.3-0.3l-4.8-0.9l4.2-2.5c0,0,0,0,0,0c0,0,1.6-1.2,3.1-5.6l0-0.1l0.1-0.1
					c1.5-2.8,4-4.4,6.8-4.4c1.7,0,3.2,0.6,4.3,1.7c1.4,1.4,1.9,3.3,1.5,5.2c-0.4,1.5-1.3,3.1-2.8,4.6C-28.7,6.9-31.5,7.7-35.2,7.7z"
					/>
			</g>
			<path class="st0" d="M-28.4,3.9c-3,3-10.8,1.6-10.8,1.6s2-1.2,3.9-6.5c2-3.8,6.1-4.3,8.1-2.3S-26.1,1.6-28.4,3.9z"/>
		</g>
	</g>
	<g>
		<path class="st5" d="M-85,16L-85,16c-13.3,0-24-10.7-24-24v0c0-13.3,10.7-24,24-24h0c13.3,0,24,10.7,24,24v0
			C-61,5.3-71.7,16-85,16z"/>
	</g>
	<g>
		<path class="st0" d="M-71.3-20.4c-1-1-2.8-0.7-4.1,0.5L-88.9-7.4C-88.9-7.3-89-7.2-89-7.2c1.2,0.2,2.4,0.8,3.2,1.6
			c0.8,0.8,1.3,1.7,1.5,2.7l12.5-13.5C-70.5-17.6-70.3-19.4-71.3-20.4z"/>
		<path class="st0" d="M-88.4,2.9c-3,3-10.8,1.6-10.8,1.6s2-1.2,3.9-6.5c2-3.8,6.1-4.3,8.1-2.3C-85.1-2.2-86.1,0.6-88.4,2.9z"/>
	</g>
</g>
</svg>
