<svg xmlns="http://www.w3.org/2000/svg" viewBox="0 0 272.07 143.3"><defs><style>.cls-1{fill:#e8edee;}.cls-2{fill:#b0b6bb;}.cls-3{fill:#38454f;}.cls-4{fill:#ea6148;}.cls-5{fill:#ecba16;}.cls-6{fill:#546a79;}.cls-7{fill:#ebba16;}.cls-8{fill:#7383bf;}.cls-9{fill:#d75a4a;}.cls-10{fill:#61b872;}.cls-11{fill:#afb6bb;}.cls-12{fill:#ff7b05;}.cls-13{fill:#ff6500;}.cls-14{fill:#ff9416;}.cls-15{fill:#ffe92f;}.cls-16{fill:#fff634;}.cls-17{fill:#fff80b;}.cls-18{fill:#ff7a00;}</style></defs><title>challenge</title><g id="Layer_2" data-name="Layer 2"><g id="description"><g id="challenge"><path class="cls-1" d="M168.38,122.9H113.76a9.1,9.1,0,0,1,9.1-9.11h36.42a9.11,9.11,0,0,1,9.1,9.11"/><polygon class="cls-2" points="157 113.79 125.14 113.79 129.69 95.59 152.45 95.59 157 113.79"/><path class="cls-3" d="M207.07,77.38h-132V8a8,8,0,0,1,8-8H199.1a8,8,0,0,1,8,8V77.38Z"/><path class="cls-1" d="M199.1,95.59H83a8,8,0,0,1-8-8V77.38h132V87.62a8,8,0,0,1-8,8"/><path class="cls-4" d="M186.59,68.28H152.45a2.28,2.28,0,0,1,0-4.56h34.14a2.28,2.28,0,0,1,0,4.56"/><path class="cls-4" d="M118.31,54.62H95.55a2.28,2.28,0,0,1,0-4.55h22.76a2.28,2.28,0,1,1,0,4.55"/><path class="cls-4" d="M175.21,54.62H141.07a2.28,2.28,0,1,1,0-4.55h34.14a2.28,2.28,0,0,1,0,4.55"/><path class="cls-4" d="M129.69,54.62a2.37,2.37,0,0,1-.87-.18,2.46,2.46,0,0,1-.75-.48,2.31,2.31,0,0,1,0-3.23,2.29,2.29,0,0,1,.75-.48,2.34,2.34,0,0,1,2.49.48,2.28,2.28,0,0,1-1.62,3.89"/><path class="cls-4" d="M141.07,68.28H106.93a2.28,2.28,0,0,1,0-4.56h34.14a2.28,2.28,0,0,1,0,4.56"/><path class="cls-4" d="M95.55,68.28a2.15,2.15,0,0,1-.86-.19,2.44,2.44,0,0,1-.75-.47A2.34,2.34,0,0,1,93.28,66a2.11,2.11,0,0,1,.18-.86,2.23,2.23,0,0,1,.48-.76,2.34,2.34,0,0,1,2-.61,1.33,1.33,0,0,1,.44.14,1.16,1.16,0,0,1,.38.2c.14.09.25.18.37.27a2.58,2.58,0,0,1,.48.76,2.28,2.28,0,0,1,.18.86,2.38,2.38,0,0,1-.66,1.62c-.12.09-.23.18-.37.27a1.16,1.16,0,0,1-.38.2,1.33,1.33,0,0,1-.44.14,3,3,0,0,1-.43,0"/><path class="cls-4" d="M186.59,54.62a2.2,2.2,0,0,1-.44,0,1.26,1.26,0,0,1-.43-.13,2,2,0,0,1-.41-.21L185,54a2.31,2.31,0,0,1,0-3.23l.34-.27a1.6,1.6,0,0,1,.41-.21,1.55,1.55,0,0,1,.43-.14,2.28,2.28,0,0,1,2,.62l.27.36a1.23,1.23,0,0,1,.21.39,1.26,1.26,0,0,1,.13.43,2.18,2.18,0,0,1,.05.43,2.58,2.58,0,0,1-.05.46,1.3,1.3,0,0,1-.13.41,1.6,1.6,0,0,1-.21.41l-.27.34-.34.27a2,2,0,0,1-.41.21,1.26,1.26,0,0,1-.43.13,2.18,2.18,0,0,1-.43,0"/><path class="cls-4" d="M186.59,27.31H152.45a2.28,2.28,0,1,1,0-4.55h34.14a2.28,2.28,0,0,1,0,4.55"/><path class="cls-4" d="M186.59,41H163.83a2.28,2.28,0,1,1,0-4.56h22.76a2.28,2.28,0,0,1,0,4.56"/><path class="cls-4" d="M145.62,41h-4.55a2.28,2.28,0,0,1,0-4.56h4.55a2.28,2.28,0,0,1,0,4.56"/><path class="cls-4" d="M175.21,13.66H141.07a2.28,2.28,0,0,1,0-4.56h34.14a2.28,2.28,0,0,1,0,4.56"/><path class="cls-4" d="M186.59,13.66a3.29,3.29,0,0,1-.44-.05,1.28,1.28,0,0,1-.43-.14,1.55,1.55,0,0,1-.41-.2L185,13a2.32,2.32,0,0,1,0-3.24l.34-.27a1.55,1.55,0,0,1,.41-.2,1.28,1.28,0,0,1,.43-.14,2.28,2.28,0,0,1,2,.61c.09.12.18.23.27.37a1.19,1.19,0,0,1,.21.38,1.32,1.32,0,0,1,.13.44,2,2,0,0,1,.05.43,2.38,2.38,0,0,1-.05.45,1.23,1.23,0,0,1-.13.41,1.45,1.45,0,0,1-.21.41l-.27.35-.34.27a1.55,1.55,0,0,1-.41.2,1.28,1.28,0,0,1-.43.14,3.34,3.34,0,0,1-.43.05"/><path class="cls-4" d="M143.34,27.31a2.38,2.38,0,0,1-1.61-.66,2.52,2.52,0,0,1-.48-.75,2.17,2.17,0,0,1,0-1.73,2.52,2.52,0,0,1,.48-.75,2.36,2.36,0,0,1,2-.62,1.51,1.51,0,0,1,.44.14,1.35,1.35,0,0,1,.39.21,2.52,2.52,0,0,1,.34.27,2.4,2.4,0,0,1,.5.75,2.17,2.17,0,0,1,0,1.73,2.4,2.4,0,0,1-.5.75,2.52,2.52,0,0,1-.34.27,1.64,1.64,0,0,1-.39.21,1.25,1.25,0,0,1-.44.13,2,2,0,0,1-.43,0"/><path class="cls-4" d="M154.72,41a2.34,2.34,0,0,1-1.61-.66,2.32,2.32,0,0,1,0-3.24,2.39,2.39,0,0,1,3.23,0,2.42,2.42,0,0,1,.66,1.62,2.22,2.22,0,0,1-.05.45,1.23,1.23,0,0,1-.13.41,1.77,1.77,0,0,1-.21.41l-.27.35a2.34,2.34,0,0,1-1.62.66"/><polygon class="cls-5" points="95.55 40.97 127.41 40.97 127.41 9.1 95.55 9.1 95.55 40.97"/><path class="cls-3" d="M38.57,114.05,50,120.55a9.9,9.9,0,0,1,4.43,5.27l5.66,15.75a2.58,2.58,0,0,0,2.51,1.73c15.63-.74,18-37.36,18.23-44.14,0-.72,1.24-4,.78-4.54L74.23,86a3.13,3.13,0,0,0-2.61-1.1s-3.57.18-4.15-.15l-10.2-5.8L49.35,74.4c-.59-.33-2.58-3.68-2.58-3.68A3.12,3.12,0,0,0,44.5,69L33.29,67.13c-.71-.12-2.9,2.6-3.51,3-5.72,3.64-36,24.4-28.64,38.21a2.57,2.57,0,0,0,2.77,1.28l16.43-3.18a9.94,9.94,0,0,1,6.8,1.11Z"/><circle class="cls-6" cx="54.07" cy="108.45" r="5.57"/><circle class="cls-6" cx="33.12" cy="80.52" r="5.57"/><circle class="cls-7" cx="72.17" cy="96.33" r="2.78"/><circle class="cls-8" cx="64.58" cy="98.42" r="2.78"/><circle class="cls-9" cx="74.26" cy="103.93" r="2.78"/><circle class="cls-10" cx="66.67" cy="106.01" r="2.78"/><path class="cls-11" d="M60.79,82.56a3.86,3.86,0,0,0,.32-.72,1.58,1.58,0,0,0,.07-.71l-3-1.71-.33-.13c-.1-.06-.19-.15-.28-.21l-.29-.17-2.72-1.55a1.46,1.46,0,0,0-.51.35,4.4,4.4,0,0,0-.88,1.54,4.18,4.18,0,0,0,7.62,3.31Z"/><path class="cls-6" d="M44.19,99.07l-4-2.26,2.27-4a1,1,0,0,0-.38-1.35L39,89.71a1,1,0,0,0-1.35.37l-2.27,4-4-2.26a1,1,0,0,0-1.36.37l-1.77,3.11a1,1,0,0,0,.38,1.35l4,2.26-2.26,4a1,1,0,0,0,.37,1.36L33.84,106a1,1,0,0,0,1.36-.38l2.26-4,4,2.26a1,1,0,0,0,1.36-.37l1.77-3.11A1,1,0,0,0,44.19,99.07Z"/><circle class="cls-12" cx="231.57" cy="102.05" r="40.5"/><path class="cls-13" d="M227.7,61.73a40.5,40.5,0,0,1,2.45,80.8,40.5,40.5,0,1,0-2.45-80.8Z"/><path class="cls-14" d="M242.82,63.15,224.65,142c.94.17,1.89.3,2.84.4l18-78.31C244.64,63.71,243.73,63.41,242.82,63.15Zm-9.54-1.56-18.06,77.52a41.64,41.64,0,0,0,6.48,2.22l18.35-78.88A40.58,40.58,0,0,0,233.28,61.59Z"/><circle class="cls-15" cx="231.57" cy="102.05" r="28.08"/><path class="cls-16" d="M211.2,117.74a28.08,28.08,0,0,1,28.38-42.6A28.08,28.08,0,1,0,227,129.75,28,28,0,0,1,211.2,117.74Z"/><path class="cls-17" d="M242.73,76.27c-.88-.38-1.78-.72-2.69-1l-12.57,54.56a27.14,27.14,0,0,0,2.86.27Z"/><path class="cls-17" d="M230.4,74l-12.27,52.71a28.16,28.16,0,0,0,6.4,2.53l12.72-54.68A28.53,28.53,0,0,0,230.4,74Z"/><path class="cls-18" d="M226.29,89.55l4.87,3a2.39,2.39,0,0,0,2.23.16l5.23-2.31a2.4,2.4,0,0,1,3.31,2.77l-1.35,5.56a2.39,2.39,0,0,0,.55,2.17l3.81,4.27a2.41,2.41,0,0,1-1.62,4l-5.7.43a2.42,2.42,0,0,0-1.9,1.19l-2.88,4.95a2.41,2.41,0,0,1-4.31-.3l-2.17-5.29a2.39,2.39,0,0,0-1.72-1.44l-5.59-1.21a2.4,2.4,0,0,1-1-4.19l4.36-3.7a2.41,2.41,0,0,0,.83-2.08l-.57-5.69A2.41,2.41,0,0,1,226.29,89.55Z"/></g></g></g></svg>