<svg xmlns="http://www.w3.org/2000/svg" viewBox="0 0 256 256">
  <path d="M37.9 156.9c0 16.4 2.1 40.7 17.9 58.6S97.2 242 133 242c31.4 0 55-9.3 69.3-27.2 10-12.9 15.7-30 15.7-50v-27.9c0-15-12.2-27.9-27.9-27.9-3.6 0-7.1.7-10 2.1-4.3-9.3-13.6-15-24.3-15-3.6 0-7.1.7-10.7 2.1-5-8.6-13.6-14.3-24.3-14.3-2.9 0-5 .7-7.9 1.4V39.7C112.9 26.1 100 14 85.7 14c-15 0-27.9 12.2-27.9 27.9v82.9c-10 3.6-19.3 12.9-19.3 26.4-.6 2.2-.6 4.3-.6 5.7z" fill="#1a1a1a"/>
  <path d="M50 156.9v-5.7c0-10 8.6-15.7 15.7-15.7v17.9c0 2.9 1.4 2.9 2.1 2.9s2.1 0 2.1-2.9v-113c0-8.6 7.1-15 15-15s15 5.7 15 12.9v72.9c0 1.4 1.4 2.1 2.1 2.1.7 0 2.1-1.4 2.1-2.1v-.7c0-8.6 7.1-15 15-15 8.6 0 15 7.1 15 15v10.7c0 1.4 1.4 2.1 2.1 2.1 1.4 0 2.1-1.4 2.1-2.1v-.7c0-7.9 7.1-12.9 15-12.9 8.6 0 15 7.1 15 15l2.1 12.2c0 1.4.7 2.1 2.1 2.1s2.1-.7 2.1-2.1v-.7c0-7.1 7.9-12.2 15-12.2 8.6 0 15 7.1 15 15v27.9c0 25.7-10 65-72.2 65-69.5 0-82.4-34.3-82.4-72.9" fill="#fff"/>
</svg>