<svg version="1.1" id="Layer_1" xmlns="http://www.w3.org/2000/svg" xmlns:xlink="http://www.w3.org/1999/xlink" width="64" height="64" viewBox="0 0 72 73">
<g>
	<path fill="none" d="M16.3,55.7c2.4,2.4,5.4,4.4,8.9,5.9c3.4,1.5,7,2.2,10.8,2.2c5,0,9.7-1.3,14-3.7c4.3-2.5,7.7-5.9,10.2-10.2
		c2.4-4.1,3.6-8.7,3.7-13.5c-0.1-4.8-1.3-9.3-3.7-13.4c-2.5-4.3-5.9-7.7-10.2-10.2c-4.3-2.5-9-3.7-14-3.7c-5,0-9.7,1.3-13.9,3.7
		c-4.3,2.5-7.7,5.9-10.2,10.2c-2.4,4.1-3.6,8.7-3.7,13.5c0.1,3.6,0.8,7.1,2.2,10.3C11.8,50.3,13.8,53.3,16.3,55.7z M31.9,36V17.4v-1
		c0-2.2,1.9-4.1,4.1-4.1c2.3,0,4.2,1.8,4.2,4.1v1v17.4l9.8,9.9c0.9,0.9,1.3,2.2,1.1,3.4c0.2,1.2-0.2,2.4-1.2,3.4
		c-0.7,0.7-1.8,1.1-2.9,1.1c-1.1,0-2.1-0.4-2.9-1.1L33.1,40.4c-0.8-0.8-1.2-1.8-1.2-2.9c0-0.1-0.1-0.3-0.1-0.5V36z"/>
	<path opacity="0.3" d="M22,3.9C26.4,2,31.1,1,35.9,1c4.8,0,9.5,1,14,2.9C58.9,7.7,65.3,14.1,69.1,23c1.8,4.3,2.8,8.8,2.9,13.5
		c0-0.2,0-0.3,0-0.5c0-4.8-1-9.5-2.9-14C65.3,13.1,58.9,6.7,50,2.9C45.5,1,40.8,0,35.9,0c-4.8,0-9.5,1-14,2.9
		C13.1,6.7,6.6,13.1,2.8,22C1,26.4,0,31.1,0,36c0,0.2,0,0.3,0,0.5c0.1-4.7,1-9.3,2.8-13.5C6.6,14.1,13.1,7.7,22,3.9z"/>
	<path opacity="0.3" d="M16.3,56.7c2.4,2.4,5.4,4.4,8.9,5.9c3.4,1.5,7,2.2,10.8,2.2c5,0,9.7-1.3,14-3.7c4.3-2.5,7.7-5.9,10.2-10.2
		c2.5-4.3,3.7-9,3.7-14c0-0.2,0-0.3,0-0.5c-0.1,4.8-1.3,9.4-3.7,13.5c-2.5,4.2-5.9,7.7-10.2,10.2c-4.3,2.5-9,3.7-14,3.7
		c-3.8,0-7.4-0.7-10.8-2.2c-3.5-1.5-6.5-3.5-8.9-5.9c-2.4-2.4-4.4-5.4-5.9-8.9c-1.4-3.2-2.1-6.7-2.2-10.3c0,0.1,0,0.3,0,0.4
		c0,3.8,0.7,7.5,2.2,10.8C11.8,51.3,13.8,54.3,16.3,56.7z"/>
	<path opacity="0.3" d="M49.9,45.7c0.7,0.7,1,1.5,1.1,2.4c0.2-1.2-0.2-2.4-1.1-3.4l-9.8-9.9v1L49.9,45.7z"/>
	<path opacity="0.3" d="M35.9,13.3c2.3,0,4.2,1.8,4.2,4.1v-1c0-2.3-1.9-4.1-4.2-4.1c-2.2,0-4.1,1.9-4.1,4.1v1
		C31.9,15.2,33.7,13.3,35.9,13.3z"/>
	<path opacity="0.2" d="M69.1,23C65.3,14.1,58.9,7.7,50,3.9C45.5,2,40.8,1,35.9,1c-4.8,0-9.5,1-14,2.9C13.1,7.7,6.6,14.1,2.8,23
		C1,27.2,0.1,31.8,0,36.5c0,0.2,0,0.3,0,0.5c0,4.9,1,9.6,2.8,14C6.6,59.9,13.1,66.3,22,70.1c4.4,1.9,9.2,2.9,14,2.9
		c4.8,0,9.5-1,14-2.9c8.9-3.8,15.3-10.2,19.2-19.1C71,46.5,72,41.8,72,37c0-0.2,0-0.3,0-0.5C71.9,31.8,71,27.3,69.1,23z M8.2,36.5
		c0.1-4.9,1.3-9.4,3.7-13.5c2.5-4.2,5.9-7.7,10.2-10.2c4.2-2.5,8.9-3.7,13.9-3.7c5,0,9.7,1.3,14,3.7c4.3,2.5,7.7,5.9,10.2,10.2
		c2.4,4.1,3.6,8.6,3.7,13.4c0,0.2,0,0.3,0,0.5c0,5-1.3,9.8-3.7,14c-2.5,4.2-5.9,7.7-10.2,10.2c-4.3,2.5-9,3.7-14,3.7
		c-3.8,0-7.4-0.7-10.8-2.2c-3.5-1.5-6.5-3.5-8.9-5.9c-2.4-2.4-4.4-5.4-5.9-8.9c-1.4-3.4-2.2-7-2.2-10.8C8.1,36.8,8.2,36.7,8.2,36.5z
		"/>
	<path opacity="0.2" d="M33.1,40.4l11.1,11.1c0.7,0.7,1.8,1.1,2.9,1.1c1.1,0,2.1-0.4,2.9-1.1c0.9-0.9,1.3-2.2,1.2-3.4
		c-0.1-0.9-0.5-1.7-1.1-2.4l-9.8-9.9v-1V17.4c0-2.3-1.9-4.1-4.2-4.1c-2.2,0-4.1,1.9-4.1,4.1V36v1c0,0.2,0,0.4,0.1,0.5
		C31.9,38.6,32.3,39.6,33.1,40.4z"/>
</g>
</svg>
