<?xml version="1.0" encoding="utf-8"?>
<!-- Generator: Adobe Illustrator 22.0.1, SVG Export Plug-In . SVG Version: 6.00 Build 0)  -->
<svg version="1.1" id="Layer_1" xmlns="http://www.w3.org/2000/svg" xmlns:xlink="http://www.w3.org/1999/xlink" x="0px" y="0px"
	 viewBox="0 0 72 73" enable-background="new 0 0 72 73" xml:space="preserve">
<g>
	<path fill="none" d="M16.3,55.6c2.4,2.4,5.4,4.4,8.9,5.9c3.4,1.5,7,2.2,10.8,2.2c5,0,9.7-1.3,14-3.7c4.3-2.5,7.7-5.9,10.2-10.2
		c2.4-4.1,3.6-8.7,3.7-13.5c-0.1-4.8-1.3-9.3-3.7-13.4c-2.5-4.3-5.9-7.7-10.2-10.2c-4.3-2.5-9-3.7-14-3.7c-5,0-9.7,1.3-13.9,3.7
		c-4.3,2.5-7.7,5.9-10.2,10.2C9.5,27,8.2,31.5,8.2,36.4c0.1,3.6,0.8,7.1,2.2,10.3C11.8,50.1,13.8,53.1,16.3,55.6z M31.9,35.8V17.2
		v-1c0-2.2,1.9-4.1,4.1-4.1c2.3,0,4.2,1.8,4.2,4.1v1v17.4l9.8,9.9c0.9,0.9,1.3,2.2,1.1,3.4c0.2,1.2-0.2,2.4-1.2,3.4
		c-0.7,0.7-1.8,1.1-2.9,1.1c-1.1,0-2.1-0.4-2.9-1.1L33.1,40.2c-0.8-0.8-1.2-1.8-1.2-2.9c0-0.1-0.1-0.3-0.1-0.5V35.8z"/>
	<path opacity="0.3" d="M22,3.7c4.4-1.9,9.2-2.9,14-2.9c4.8,0,9.5,1,14,2.9C58.9,7.5,65.3,14,69.1,22.8c1.8,4.3,2.8,8.8,2.9,13.5
		c0-0.2,0-0.3,0-0.5c0-4.8-1-9.5-2.9-14C65.3,13,58.9,6.5,50,2.7c-4.5-1.9-9.2-2.9-14-2.9c-4.8,0-9.5,1-14,2.9
		C13.1,6.5,6.6,13,2.8,21.8C1,26.2,0,30.9,0,35.8c0,0.2,0,0.3,0,0.5c0.1-4.7,1-9.3,2.8-13.5C6.6,14,13.1,7.5,22,3.7z"/>
	<path opacity="0.3" d="M16.3,56.6c2.4,2.4,5.4,4.4,8.9,5.9c3.4,1.5,7,2.2,10.8,2.2c5,0,9.7-1.3,14-3.7c4.3-2.5,7.7-5.9,10.2-10.2
		c2.5-4.3,3.7-9,3.7-14c0-0.2,0-0.3,0-0.5c-0.1,4.8-1.3,9.4-3.7,13.5c-2.5,4.2-5.9,7.7-10.2,10.2c-4.3,2.5-9,3.7-14,3.7
		c-3.8,0-7.4-0.7-10.8-2.2c-3.5-1.5-6.5-3.5-8.9-5.9c-2.4-2.4-4.4-5.4-5.9-8.9C8.9,43.5,8.2,40,8.2,36.4c0,0.1,0,0.3,0,0.4
		c0,3.8,0.7,7.5,2.2,10.8C11.8,51.1,13.8,54.1,16.3,56.6z"/>
	<path opacity="0.3" d="M49.9,45.6c0.7,0.7,1,1.5,1.1,2.4c0.2-1.2-0.2-2.4-1.1-3.4l-9.8-9.9v1L49.9,45.6z"/>
	<path opacity="0.3" d="M35.9,13.2c2.3,0,4.2,1.8,4.2,4.1v-1c0-2.3-1.9-4.1-4.2-4.1c-2.2,0-4.1,1.9-4.1,4.1v1
		C31.9,15,33.7,13.2,35.9,13.2z"/>
	<path opacity="0.2" d="M69.1,22.8C65.3,14,58.9,7.5,50,3.7c-4.5-1.9-9.2-2.9-14-2.9c-4.8,0-9.5,1-14,2.9C13.1,7.5,6.6,14,2.8,22.8
		C1,27.1,0.1,31.6,0,36.3c0,0.2,0,0.3,0,0.5c0,4.9,1,9.6,2.8,14C6.6,59.7,13.1,66.2,22,70c4.4,1.9,9.2,2.9,14,2.9
		c4.8,0,9.5-1,14-2.9c8.9-3.8,15.3-10.2,19.2-19.1c1.9-4.5,2.9-9.2,2.9-14c0-0.2,0-0.3,0-0.5C71.9,31.7,71,27.1,69.1,22.8z
		 M8.2,36.4c0.1-4.9,1.3-9.4,3.7-13.5c2.5-4.2,5.9-7.7,10.2-10.2C26.3,10.2,30.9,9,35.9,9c5,0,9.7,1.3,14,3.7
		c4.3,2.5,7.7,5.9,10.2,10.2c2.4,4.1,3.6,8.6,3.7,13.4c0,0.2,0,0.3,0,0.5c0,5-1.3,9.8-3.7,14c-2.5,4.2-5.9,7.7-10.2,10.2
		c-4.3,2.5-9,3.7-14,3.7c-3.8,0-7.4-0.7-10.8-2.2c-3.5-1.5-6.5-3.5-8.9-5.9c-2.4-2.4-4.4-5.4-5.9-8.9c-1.4-3.4-2.2-7-2.2-10.8
		C8.1,36.7,8.2,36.5,8.2,36.4z"/>
	<path opacity="0.2" d="M33.1,40.2l11.1,11.1c0.7,0.7,1.8,1.1,2.9,1.1c1.1,0,2.1-0.4,2.9-1.1c0.9-0.9,1.3-2.2,1.2-3.4
		c-0.1-0.9-0.5-1.7-1.1-2.4l-9.8-9.9v-1V17.2c0-2.3-1.9-4.1-4.2-4.1c-2.2,0-4.1,1.9-4.1,4.1v18.6v1c0,0.2,0,0.4,0.1,0.5
		C31.9,38.4,32.3,39.4,33.1,40.2z"/>
</g>
</svg>
