<svg xmlns="http://www.w3.org/2000/svg" viewBox="0 0 530.64 350.57"><defs><style>.cls-1{opacity:0.15;}.cls-2{fill:#6edcf9;}.cls-3{fill:#8dd83d;}.cls-4{fill:#ffa92c;}.cls-5{fill:#ff8828;}.cls-6{fill:#e8c018;}.cls-7{fill:#f2d422;}.cls-8{fill:#ea473b;}.cls-9{fill:#d63322;}.cls-10{fill:#f8b64c;}.cls-11{fill:#ffd15c;}.cls-12{fill:#ff7058;}.cls-13{fill:#f2f2f2;}.cls-14{fill:#40596b;}.cls-15{fill:#84dbff;}.cls-16{fill:#54c0eb;}</style></defs><title>Asset 12</title><g id="Layer_2" data-name="Layer 2"><g id="description"><g id="share"><g class="cls-1"><circle class="cls-2" cx="248.88" cy="133.75" r="10.52" transform="translate(22.21 302.42) rotate(-64.91)"/><circle class="cls-3" cx="30.72" cy="162.91" r="8.87"/><path class="cls-4" d="M261.3,38.68,242.22,26.12l-.47-22.84A3.36,3.36,0,0,0,236.31.73L218.46,15,196.59,8.39a3.35,3.35,0,0,0-4.1,4.38l8,21.38-13,18.76a3.35,3.35,0,0,0,2.9,5.25l22.82-1c15,19.83,14,18.73,15.05,19.21a3.34,3.34,0,0,0,4.65-2.14l6.06-22,21.57-7.51A3.35,3.35,0,0,0,261.3,38.68Z"/><path class="cls-5" d="M215.71,47.78,207.66,26.4a3.35,3.35,0,0,1,4.1-4.39l21.87,6.61,8.5-6.79-.38-18.55A3.36,3.36,0,0,0,236.31.73L218.46,15,196.59,8.39a3.34,3.34,0,0,0-4.1,4.38l8,21.38-13,18.76a3.35,3.35,0,0,0,2.9,5.25l18.68-.86Z"/><path class="cls-4" d="M331.61,190.81l-6.59-18,11.08-15.64a2.81,2.81,0,0,0-2.4-4.43l-19.15.71L303.1,138.08a2.8,2.8,0,0,0-5,.91l-5.24,18.43-18.16,6.14a2.81,2.81,0,0,0-.67,5L290,179.24l.22,19.16a2.74,2.74,0,0,0,.34,1.3,2.81,2.81,0,0,0,4.21.88l15.07-11.84,18.3,5.71A2.8,2.8,0,0,0,331.61,190.81Z"/><path class="cls-5" d="M296.21,173.81l5.24-18.44a2.82,2.82,0,0,1,5-.91l11.44,15.38,9.52-.36,8.73-12.31a2.81,2.81,0,0,0-2.4-4.43l-19.15.71L303.1,138.08a2.81,2.81,0,0,0-5,.91l-5.24,18.43-18.16,6.14a2.81,2.81,0,0,0-.67,5L286.7,177Z"/><path class="cls-6" d="M69.47,292.66s29.17-88.5,22.24-149.13c-1.13-7.76-5.9-13.66-15.89-13.17h0c-10.74.54-10.3,11.9-10.3,11.9h0C71.06,165,81.07,220.46,69.47,292.66Z"/><path class="cls-7" d="M258.35,307.44h0c1.3-.14,2.55-.27,3.76-.38,4.82-.91,12.4-3.92,11-14-1.63-11.78-14.7-10.3-16.8-10-70.28,13.18-131.21,67.47-131.21,67.47,54.53-30.31,105-40,133.22-43.13Z"/><path class="cls-6" d="M20.69,201.7c-1.19-2.15-7.63-12.67-16.24-7.06-5.31,3.47-5.68,8.59-2.1,13.92h0c12.46,18.59,32.69,54.7,42.08,104.22C44.44,312.78,46.49,250.84,20.69,201.7Z"/><path class="cls-8" d="M126,101.76c1-1,.61-1.05-3.57-12.44,7.1-10,7.37-9.87,6.71-11.08s-.81-.9-12.94-.45c-7.32-9.83-7.11-10.05-8.46-9.8s-1.11.49-4.43,12.16L92.47,83.81a1.67,1.67,0,0,0-.39,3l9.48,6.37c.14,12.25-.17,12.3,1.08,12.9s1.18.25,10.73-7.24l10.9,3.4A1.66,1.66,0,0,0,126,101.76Z"/><path class="cls-9" d="M113.05,95.07c-10.17-6.83-10.38-6.6-10.2-8s.43-1.13,11.94-5l1.27-4.46c-7.18-9.63-7-9.88-8.34-9.63s-1.11.49-4.43,12.16c-11.61,3.93-11.75,3.66-11.94,5s.13,1.21,10.21,8c.14,11.89,0,11.6.33,12.19a1.68,1.68,0,0,0,2.51.53L113.1,99Z"/><path class="cls-7" d="M209.87,98.56h0c-8.82-11.64-11-13-26.32-12.33h0C170.3,86.84,166.8,94.8,166.08,97c-11.62,40.78-36.15,123.22-65.21,200,40.25-71.27,87.69-142.65,111.65-177.81C215.24,115.22,218.59,110.07,209.87,98.56Z"/><path class="cls-6" d="M179.15,103.14c.72-2.22,4.23-10.18,17.45-10.79h0c3.26-.15,5.92-.2,8.18-.09-5.33-5.85-9.27-6.58-21.25-6h0C170.3,86.84,166.8,94.8,166.08,97c-11.62,40.78-36.15,123.22-65.21,200,12.37-21.9,25.42-43.82,38.26-64.69C156.82,179.76,171.09,131.42,179.15,103.14Z"/><path class="cls-7" d="M262,210.62c4.41-2.36,5.1-5.66,5.17-7.08l-.09-7.8a8,8,0,0,0-3.13-6.44l-.52-.34h0l-5.33-3.58c-5-3.38-10.19-.1-10.74.27-62.52,44.12-126.61,133.9-126.61,133.9,56.53-59.43,110.61-92.9,141.24-108.93Z"/></g><g class="cls-1"><path class="cls-10" d="M481.25,133.43l-12.17-.33.33,12.17c.33,19.74,16.78,35.86,36.51,36.52l12.18.33-.33-12.18C517.11,150.21,501,133.76,481.25,133.43Z"/><path class="cls-11" d="M484.54,140l-8.55-.33.33,8.55a27.29,27.29,0,0,0,26.31,26.32l8.56.33-.33-8.55A27.29,27.29,0,0,0,484.54,140Z"/><path class="cls-12" d="M530.6,132.44a36.9,36.9,0,0,0-6.25-7.89,45.1,45.1,0,0,0-75.67,42.76,46.62,46.62,0,0,0,11.85,21.06,47.4,47.4,0,0,0,7.89,6.25,64.46,64.46,0,1,1,6.25-128.3,63.68,63.68,0,0,1,36.85,18.42A62.57,62.57,0,0,1,530.6,132.44Z"/><path class="cls-13" d="M502.3,132.77c-9.21-56.25-57.57-97.7-117.44-96.06L373,37l-.33,11.84c-1.64,59.88,39.81,108.23,96.06,117.45Z"/><path class="cls-14" d="M443.09,159.09a135.14,135.14,0,0,0,25.66,7.24L502,133.1a114.57,114.57,0,0,0-7.24-25.66Z"/><path class="cls-14" d="M424,42a126.82,126.82,0,0,0-39.15-5.26L373,37l-.33,11.84A126.52,126.52,0,0,0,378,88Z"/><path class="cls-13" d="M468.75,166.33c3.29.65,6.91,1,10.2,1.31l24.34-24.34A98.1,98.1,0,0,0,502,133.1Z"/><circle class="cls-14" cx="427.59" cy="91.75" r="25.33"/><circle class="cls-15" cx="427.59" cy="91.75" r="17.76"/><path class="cls-16" d="M416.44,83.1a15.83,15.83,0,0,1,23,21.71c.33-.33.66-.33.66-.66a17.68,17.68,0,1,0-25,0c.33.33.66.33.66.66A16.15,16.15,0,0,1,416.44,83.1Z"/></g></g></g></g></svg>