<svg xmlns="http://www.w3.org/2000/svg" viewBox="0 0 234.98 142.44"><defs><style>.cls-1{fill:#b3f4ff;}.cls-2{fill:#53dcff;}.cls-3{fill:#00e68c;}.cls-4{fill:#00bebe;}.cls-5{fill:#5c546a;}.cls-6{fill:#fff;}.cls-7{fill:#44bef1;}.cls-8{fill:#9f6459;}.cls-9{fill:#d8dce1;}.cls-10{fill:#ff4f19;}.cls-11{fill:#ff9600;}.cls-12{fill:#ffd200;}.cls-13{fill:#74d24f;}.cls-14{fill:#b9bbc1;}.cls-15{fill:#dbd558;}.cls-16{fill:#fed198;}.cls-17{fill:#f0b97d;}.cls-18{fill:#ff5b61;}.cls-19{fill:#666;}.cls-20{fill:#15bdb1;}.cls-21{fill:#dfe1e3;}.cls-22{fill:#20d0c2;}</style></defs><title>curriculum</title><g id="Layer_2" data-name="Layer 2"><g id="description"><g id="curriculum"><path class="cls-1" d="M55.15,92.43,22.46,64.28,15.87,44.77a1.13,1.13,0,1,0-2.14.73L5.14,48.39A1.14,1.14,0,0,0,3,49.12L9.58,68.63.63,110.83a6.79,6.79,0,0,0,8.82,7.85L52.88,104a6.8,6.8,0,0,0,2.27-11.59Z"/><path class="cls-2" d="M9.43,46.94,5.14,48.39A1.14,1.14,0,0,0,3,49.12L9.58,68.63.63,110.83a6.79,6.79,0,0,0,8.82,7.85l21.72-7.33Z"/><path class="cls-3" d="M52.19,95.86l-9.47-8.15a1.15,1.15,0,0,0-1.1-.22L8.4,98.71a1.14,1.14,0,0,0-.75.84L5.06,111.77a2.23,2.23,0,0,0,.71,2.16,2.2,2.2,0,0,0,2.23.45L51.44,99.73A2.25,2.25,0,0,0,52.94,98,2.23,2.23,0,0,0,52.19,95.86Z"/><path class="cls-4" d="M25,93.1,8.4,98.71a1.14,1.14,0,0,0-.75.84L5.06,111.77a2.23,2.23,0,0,0,.71,2.16,2.2,2.2,0,0,0,2.23.45l21.72-7.32Z"/><path class="cls-5" d="M23.16,77l-6.44,2.17A1.14,1.14,0,1,1,16,77l6.44-2.17A1.14,1.14,0,1,1,23.16,77Z"/><path class="cls-5" d="M25,82.35l-6.44,2.18a1.14,1.14,0,0,1-.73-2.15l6.45-2.17A1.13,1.13,0,1,1,25,82.35Z"/><path class="cls-5" d="M26.78,87.72l-6.44,2.17a1.13,1.13,0,0,1-.72-2.14l6.44-2.18a1.13,1.13,0,0,1,.72,2.15Z"/><circle class="cls-6" cx="31.84" cy="99.17" r="2.27"/><circle class="cls-3" cx="18.95" cy="99.93" r="2.27"/><circle class="cls-6" cx="38.63" cy="94.48" r="1.13"/><circle class="cls-3" cx="23.62" cy="103.14" r="1.13"/><circle class="cls-3" cx="13.23" cy="104.25" r="1.13"/><path class="cls-7" d="M14.42,40.48,1.54,44.82A2.28,2.28,0,0,0,.12,47.7h0A2.27,2.27,0,0,0,3,49.12l12.88-4.35a2.26,2.26,0,0,0,1.42-2.87h0A2.26,2.26,0,0,0,14.42,40.48Z"/><rect class="cls-6" x="133.2" y="45.81" width="85.47" height="68.38" rx="1.71" ry="1.71" transform="translate(21.38 196.05) rotate(-61.35)"/><path class="cls-8" d="M230.53,51.39l-27-14.76a3.42,3.42,0,0,1-6-3.27l-27-14.76A8.56,8.56,0,0,0,158.92,22l-41,75a8.56,8.56,0,0,0,3.41,11.6l60,32.78A8.56,8.56,0,0,0,193,138l41-75A8.55,8.55,0,0,0,230.53,51.39Zm-44.26,81a1.72,1.72,0,0,1-2.32.68l-57-31.15a1.72,1.72,0,0,1-.68-2.32l39.34-72a1.72,1.72,0,0,1,2.32-.68l57,31.15a1.71,1.71,0,0,1,.68,2.32Z"/><path class="cls-9" d="M146.6,87.35a1.71,1.71,0,0,1,.24-3.11l19.38-6.95a1.71,1.71,0,0,1,1.94.59L179.5,93l23.06-18.66A1.71,1.71,0,0,1,204.71,77L180.28,96.75a1.76,1.76,0,0,1-1.29.37,1.74,1.74,0,0,1-1.16-.67L166.19,80.94,148,87.46A1.74,1.74,0,0,1,146.6,87.35Z"/><circle class="cls-10" cx="147.42" cy="85.85" r="5.13"/><circle class="cls-11" cx="166.8" cy="78.9" r="5.13"/><circle class="cls-12" cx="179.2" cy="95.42" r="5.13"/><circle class="cls-13" cx="203.63" cy="75.65" r="5.13"/><path class="cls-14" d="M211.16,36.91l-3.82-2.09A6.79,6.79,0,0,0,197,29.17l-3.83-2.09a8.56,8.56,0,0,0-11.6,3.4l-3.28,6A1.72,1.72,0,0,0,179,38.8l30,16.39a1.71,1.71,0,0,0,2.32-.68l3.28-6A8.56,8.56,0,0,0,211.16,36.91Zm-11.46-.42a1.71,1.71,0,1,1,2.32-.68A1.7,1.7,0,0,1,199.7,36.49Z"/><path class="cls-15" d="M106.58,132a66,66,0,1,0-66-66A66.13,66.13,0,0,0,106.58,132Z"/><path class="cls-16" d="M99.58,49.49h14l1.14,11.79,3.42,2.52,20.38,6.46A8.11,8.11,0,0,1,142,75.84c.78,4.11,1.16,13.2,1.77,18.74-13.94,16-59.43,16-74.33,0C70,89,70.4,80,71.18,75.84a8.15,8.15,0,0,1,3.46-5.59l20.52-6.54,3.28-2.43,1.14-11.79Z"/><path class="cls-17" d="M114.19,55.89l.18,1.87c-1,1.21-2.12,2.37-3.13,3.49-1.15,1.27-8.26,1.29-9.43,0-.94-1.09-2-2.28-3-3.54L99,55.8c1,1.13,2,2.19,2.84,3.18,1.17,1.28,8.28,1.25,9.43,0,1-1,2-2,3-3.13Z"/><path class="cls-18" d="M95.16,63.71,74.64,70.26a8.11,8.11,0,0,0-3.46,5.58C70.4,80,70,89,69.41,94.59c14.9,16,60.39,16,74.33,0-.61-5.54-1-14.63-1.77-18.74a8.11,8.11,0,0,0-3.46-5.58L118.13,63.8c-3.37,9.9-19.75,9.49-23-.09Z"/><path class="cls-16" d="M89.1,31.57c-4.39-.78-.65,12.33,2.56,10.38l1.72,5c1.55,4.55,5.46,8.69,8.43,12,1.17,1.28,8.28,1.26,9.43.05,3.29-3.46,7.21-7.35,8.68-12.05l1.57-5c3.21,1.95,7-11.16,2.56-10.38.3-10.2-6.91-20.1-17.47-20.15S88.8,21.37,89.1,31.57Z"/><path class="cls-19" d="M119.18,13.43c1.23-.14,5.71,3.95,6.25,8.69a39.6,39.6,0,0,1-.28,9.62c-3.28-.41-2.65,5.48-2.65,5.48l-1,0-.68-3.42c-3.92-2.46,1.55-12.18-2.38-13-6.72,5.54-16.69,7.58-25.38,6.16-2.45.33,1.11,3.41.08,7a5.74,5.74,0,0,0-.31,3.42l-1.14.14s-.7-5.94-2.89-5.91c-1-2.74-.8-4.47-.62-6.91,1-13.55,18.24-22.06,31-11.24Z"/><path class="cls-6" d="M69.53,72.7c22.85-3,31.94,2.74,37.05,7.26-7.6-4.38-22.17-4.09-36.4-1.54l-.65-5.72Z"/><path class="cls-6" d="M143.62,72.7c-22.84-3-31.94,2.74-37,7.26,9-5.22,26.08-3.35,36.38-1.46l.66-5.8Z"/><path class="cls-20" d="M63.9,79.32c16.11-3.67,34.16-4.83,42.92.21,8.76-5,26.32-3.88,42.43-.21-.92,31.69-.15,5.24-1.38,47.53-1-.17-26.41-4-38.71-.27h-4.58c-13.51-3.93-38.41.11-39.3.27-1.27-43.67-.43-14.7-1.38-47.53Z"/><path class="cls-21" d="M65.94,76.48,66.18,79c15.56-3.3,32.47-4.16,40.85.67h0S94.58,70.31,65.94,76.48Z"/><path class="cls-21" d="M147.21,76.62,147,79.14c-15.56-3.3-32.46-4.16-40.85.67h0s12.45-9.36,41.09-3.19Z"/><path class="cls-16" d="M72.66,92.24l-4.49.23-4.46.32c-1.85.13-1.54,3.44.3,3.23l4.87-.58,3.7-.31C74.42,95,73.9,92.17,72.66,92.24ZM72,102.53h0l-7,.82c-1.5.17-1.14,3.5.3,3.22l7-1.34c1.46-.28,1.15-2.87-.33-2.7Zm.89-3.61h0a1.47,1.47,0,0,1,.38,2.92L64.5,103c-1.84.24-2.15-3-.3-3.22l8.73-.82Zm1.23-3.6h0a1.62,1.62,0,1,1,.3,3.22l-10.24,1a1.62,1.62,0,1,1-.3-3.22l10.24-1Z"/><path class="cls-6" d="M72.08,93l.16,1.68,1.12-.1a2.42,2.42,0,0,0-.17-1.81Z"/><path class="cls-6" d="M74,96.1,74.19,98l1-.1a1.7,1.7,0,0,0-.19-2Z"/><path class="cls-6" d="M72.61,99.68l.16,1.68,1.28-.12a2.79,2.79,0,0,0-.17-1.8Z"/><path class="cls-6" d="M71.56,103.4l.2,1.33,1.29-.22a1.84,1.84,0,0,0-.22-1.43Z"/><path class="cls-16" d="M140.49,92.24l4.49.23,4.46.32c1.85.13,1.54,3.44-.3,3.23l-4.87-.58-3.69-.31c-1.85-.16-1.33-3-.09-2.89Zm.62,10.29h0l7,.82c1.49.17,1.13,3.5-.31,3.22l-7-1.34c-1.46-.28-1.15-2.87.33-2.7Zm-.89-3.61h0a1.47,1.47,0,0,0-.38,2.92l8.81,1.12c1.84.24,2.15-3,.3-3.22l-8.73-.82ZM139,95.32h0a1.62,1.62,0,1,0-.3,3.22l10.24,1a1.62,1.62,0,1,0,.3-3.22Z"/><path class="cls-6" d="M141.07,93l-.16,1.68-1.12-.1a2.42,2.42,0,0,1,.17-1.81Z"/><path class="cls-6" d="M139.14,96.1,139,98l-1.05-.1a1.7,1.7,0,0,1,.19-2l1,.23Z"/><path class="cls-6" d="M140.54,99.68l-.16,1.68-1.28-.12a2.85,2.85,0,0,1,.17-1.8Z"/><path class="cls-6" d="M141.6,103.4l-.21,1.33-1.29-.22a1.84,1.84,0,0,1,.22-1.43l1.28.32Z"/><path class="cls-22" d="M104.63,126.58h4.53V78.48h-4.53Z"/></g></g></g></svg>