<svg xmlns="http://www.w3.org/2000/svg" viewBox="0 0 48 48">
  <path style="fill:var(--fill, #FFF)" d="M39.5 31a8.49 8.49 0 0 0-8.25 6.5h-14.5a8.47 8.47 0 0 0-1-2.42l5.78-5.78A6 6 0 0 0 30 23.83a5.87 5.87 0 0 0-.54-2.47l5.62-5.61a8.5 8.5 0 1 0-3.83-9.25h-14.5a8.5 8.5 0 1 0 0 4h14.5a8.47 8.47 0 0 0 1 2.42l-5.56 5.56a5.93 5.93 0 0 0-2.69-.65 6 6 0 0 0-6 6 6.1 6.1 0 0 0 .64 2.7l-5.72 5.72a8.5 8.5 0 1 0 3.83 9.25h14.5A8.5 8.5 0 1 0 39.5 31zm-31-18A4.5 4.5 0 1 1 13 8.5 4.51 4.51 0 0 1 8.5 13zM24 20.83a3 3 0 1 1-3 3 3 3 0 0 1 3-3zM39.5 44a4.5 4.5 0 1 1 4.5-4.5 4.51 4.51 0 0 1-4.5 4.5z" fill="#fff" data-name="Layer 2"/>
</svg>