<svg xmlns="http://www.w3.org/2000/svg" viewBox="0 0 704.52 258.8"><defs><style>.cls-1{opacity:0.15;}.cls-2{fill:#1a1a1a;}.cls-3{fill:#333;}.cls-4{fill:#a62127;}.cls-5{fill:#c1272d;}.cls-6{fill:#ad7928;}.cls-7{fill:#fbb03b;}</style></defs><title>specialneeds_1</title><g id="Layer_2" data-name="Layer 2"><g id="description"><g id="special_needs" data-name="special needs"><g class="cls-1"><path class="cls-2" d="M672.37,197.84c-21.68,18.07-52.71,33.2-87.37,42.6s-69.08,12-96.93,7.36-46.32-16.07-53-32.42a35.94,35.94,0,0,0,.9,4.46c5.05,18.64,24.41,31.68,54.51,36.71,27.84,4.65,62.26,2,96.92-7.36s65.7-24.53,87.38-42.6c23.43-19.54,33.55-40.57,28.5-59.22a37.55,37.55,0,0,0-1.47-4.3C704.24,160.57,694,179.83,672.37,197.84Z"/><path class="cls-3" d="M488.07,247.8c27.85,4.65,62.27,2,96.93-7.36s65.69-24.53,87.37-42.6,31.87-37.27,29.41-54.77a35.82,35.82,0,0,0-.91-4.45c-4.59-17-21-29.27-46.59-35.15,10.68,4.45,17.83,10.93,20.09,19.28a21.86,21.86,0,0,1,.62,3.4,27.46,27.46,0,0,1,1.32,3.76c8.28,30.53-35.95,69.1-98.78,86.13s-120.47,6.08-128.75-24.45a27.69,27.69,0,0,1-.76-3.9,21.16,21.16,0,0,1-1.18-3.26c-2-7.24,0-15.14,5.06-23.13-16.1,16.74-22.58,34.11-18.33,49.78a34,34,0,0,0,1.47,4.3C441.75,231.73,460.35,243.16,488.07,247.8Z"/><path class="cls-4" d="M573.65,201.72c-60.18,16.31-114.8,9.9-125.63-14a27.69,27.69,0,0,0,.76,3.9c8.28,30.53,65.92,41.48,128.75,24.45s107.06-55.6,98.78-86.13a27.46,27.46,0,0,0-1.32-3.76C677.73,152.28,633.83,185.4,573.65,201.72Z"/><path class="cls-5" d="M654.28,103.47c-23.35-9.72-63.61-9.7-106.73,2-45.71,12.39-82,34.48-95.65,55.84-5.1,8-7,15.89-5.06,23.13a21.16,21.16,0,0,0,1.18,3.26c10.83,23.93,65.45,30.34,125.63,14S677.73,152.28,675,126.15a21.86,21.86,0,0,0-.62-3.4C672.11,114.4,665,107.92,654.28,103.47Z"/></g><g class="cls-1"><path class="cls-2" d="M144,105.61c-18.92,2.47-42.11-.12-65.29-7.3S35,80.16,20.75,67.43.12,41.49,2.2,29.73A24.2,24.2,0,0,0,1.11,32.6C-2.76,45.07,3.57,59.52,18.93,73.28,33.14,86,53.74,97,76.92,104.16s46.38,9.77,65.29,7.3c20.45-2.67,33.84-11,37.7-23.49a23.93,23.93,0,0,0,.72-3C175.7,95.87,162.86,103.14,144,105.61Z"/><path class="cls-3" d="M20.75,67.43c14.2,12.73,34.8,23.7,58,30.88s46.37,9.77,65.29,7.3S175.7,95.87,180.63,85a26.13,26.13,0,0,0,1.1-2.87c3.51-11.34-1.41-24.32-13.88-36.93,4.49,6.41,6.22,12.7,4.49,18.28a14.08,14.08,0,0,1-.88,2.17,20.22,20.22,0,0,1-.6,2.62c-6.33,20.42-45.53,26.43-87.56,13.42s-71-40.13-64.64-60.56a18.47,18.47,0,0,1,1-2.5,15.13,15.13,0,0,1,.51-2.29C21.64,11.49,25.6,7.68,31.4,5,16.15,8.7,6.17,16.26,2.92,26.75a23.93,23.93,0,0,0-.72,3C.12,41.49,6.6,54.75,20.75,67.43Z"/><path class="cls-6" d="M86.27,72.1C46,59.63,17.16,36.2,19.63,18.62a18.47,18.47,0,0,0-1,2.5C12.33,41.55,41.27,68.66,83.3,81.68s81.23,7,87.56-13.42a20.22,20.22,0,0,0,.6-2.62C163.57,81.54,126.53,84.56,86.27,72.1Z"/><path class="cls-7" d="M167.85,45.19c-9.81-14-32.8-28.56-61.64-37.49C75.63-1.77,46.91-2.3,31.4,5c-5.8,2.72-9.76,6.53-11.26,11.37a15.13,15.13,0,0,0-.51,2.29C17.16,36.2,46,59.63,86.27,72.1s77.3,9.44,85.19-6.46a14.08,14.08,0,0,0,.88-2.17C174.07,57.89,172.34,51.6,167.85,45.19Z"/></g></g></g></g></svg>