<?xml version="1.0" encoding="utf-8"?>
<!-- Generator: Adobe Illustrator 22.1.0, SVG Export Plug-In . SVG Version: 6.00 Build 0)  -->
<svg version="1.1" id="Layer_1" xmlns="http://www.w3.org/2000/svg" xmlns:xlink="http://www.w3.org/1999/xlink" x="0px" y="0px"
	 viewBox="0 0 694 396" style="enable-background:new 0 0 694 396;" xml:space="preserve">
<style type="text/css">
	.st0{fill:#116385;}
	.st1{opacity:0.1;}
	.st2{fill:#D22215;}
	.st3{fill:#A81411;}
	.st4{fill:#FFFFFF;}
	.st5{fill:#D1D1D1;}
</style>
<g>
	<path class="st0" d="M675,396H19c-10.4,0-19-8.5-19-19V19C0,8.6,8.6,0,19,0h656c10.5,0,19,8.6,19,19v358
		C694,387.5,685.5,396,675,396z"/>
	<g class="st1">
		<circle class="st2" cx="347" cy="198" r="122"/>
		<path class="st3" d="M408.4,157.2c-3.7,1.1-7.5,2.1-11.3,3c-27.1,5.8-63.3-9.9-78.9,15.6c-13,20.3-17.1,45.6-31.9,63.7l79.1,79.1
			c52.6-8,94.3-49.6,102.2-102.2L408.4,157.2z"/>
		<path class="st4" d="M387.8,148.6h-81.6c-16,0-29,13-29,29v40.8c0,16,13,29,29,29h81.6c16,0,29-13,29-29v-40.8
			C416.8,161.6,403.8,148.6,387.8,148.6L387.8,148.6z M368.2,200L330,218.2c-1,0.5-2.2-0.3-2.2-1.4v-37.6c0-1.1,1.2-1.9,2.2-1.4
			l38.2,19.3C369.4,197.8,369.4,199.4,368.2,200L368.2,200z"/>
		<path class="st5" d="M387.8,148.6h-41.6v37.5l22.1,11.2c1.1,0.6,1.1,2.2,0,2.8l-22,10.5v36.9h41.6c16,0,29-13,29-29v-40.8
			C416.8,161.6,403.8,148.6,387.8,148.6z"/>
	</g>
</g>
</svg>
