<?xml version="1.0" encoding="utf-8"?>
<!-- Generator: Adobe Illustrator 22.1.0, SVG Export Plug-In . SVG Version: 6.00 Build 0)  -->
<svg version="1.1" id="Layer_1" xmlns="http://www.w3.org/2000/svg" xmlns:xlink="http://www.w3.org/1999/xlink" x="0px" y="0px"
	 viewBox="0 0 256 256" style="enable-background:new 0 0 256 256;" xml:space="preserve">
<style type="text/css">
	.st0{fill:#E6E6E6;}
	.st1{display:none;fill:#B3B3B3;}
	.st2{fill:#FFFFFF;}
</style>
<circle class="st0" cx="128" cy="128" r="128"/>
<g id="Layer_2">
	<g>
		<path class="st1" d="M119.6,65.9c-12.1,0-29.8,1.4-43.1,13.3c-12.8,11.4-19,29.9-19,56.5c0,23,6.8,40.1,20.1,50.7
			c9.4,7.4,22,11.3,36.6,11.3l20.5,0c11.1,0,20.2-9.1,20.2-20.2c0-2.5-0.5-5.1-1.4-7.5c6.6-3.3,11.1-10.2,11.1-18
			c0-2.8-0.5-5.5-1.5-7.9c6.4-3.4,10.7-10.1,10.7-17.8c0-1.9-0.3-3.8-0.8-5.6c2.3,0,4.6,0,7,0c12,0,23.9,0,26,0c0.1,0,0.2,0,0.3,0v0
			c10.2,0,18.7-9.2,18.7-20.1c0-11.1-9.1-20.2-20.2-20.2h-61.6c-2.5-7.4-9.4-14-19.2-14.3C122.5,65.9,121,65.9,119.6,65.9
			L119.6,65.9z"/>
		<path class="st2" d="M119.6,75c1.4,0,2.7,0,4.1,0.1c7.1,0.2,11.4,6.3,11.4,11.4H122c-1.6,0-1.8,1.1-1.8,1.5s0.2,1.4,1.8,1.4
			c1.6,0,82.8,0,82.8,0c6.1,0,11.1,5,11.1,11.1c0,5.6-4.3,11-9.6,11c0,0-0.1,0-0.3,0c-3.8,0-41.1,0-50.6,0c0,0,0,0-0.1,0h-2.1
			c-1,0-1.8,0.8-1.8,1.8c0,1,0.8,1.8,1.8,1.8h0.5c6.1,0.1,10.9,5,10.9,11.1c0,6.1-5,11.1-11.1,11.1l-8.1,0c-1,0-1.8,0.8-1.8,1.8
			c0,1,0.8,1.8,1.8,1.8l0.5,0c5.6,0,9.5,5.4,9.5,11c0,6.1-5,11.1-11.1,11.1l-8.2,0c-1,0-1.7,0.8-1.7,1.7c0,1,0.8,1.7,1.7,1.7l0.6,0
			c5.1,0,9,5.5,9,10.9c0,6.1-5,11.1-11.1,11.1l-20.4,0c-19,0-47.6-7.4-47.6-52.9C66.6,84,91.6,75,119.6,75"/>
	</g>
</g>
</svg>
