<svg xmlns="http://www.w3.org/2000/svg" viewBox="0 0 256 256">
  <circle cx="128" cy="128" r="128" fill="#e6e6e6" style="fill:var(--fill, #e6e6e6)"/>
  <path d="M119.6 75c1.4 0 2.7 0 4.1.1 7.1.2 11.4 6.3 11.4 11.4H122c-1.6 0-1.8 1.1-1.8 1.5s.2 1.4 1.8 1.4h82.8c6.1 0 11.1 5 11.1 11.1 0 5.6-4.3 11-9.6 11h-50.9-2.2c-1 0-1.8.8-1.8 1.8s.8 1.8 1.8 1.8h.5c6.1.1 10.9 5 10.9 11.1s-5 11.1-11.1 11.1h-8.1c-1 0-1.8.8-1.8 1.8s.8 1.8 1.8 1.8h.5c5.6 0 9.5 5.4 9.5 11 0 6.1-5 11.1-11.1 11.1h-8.2c-1 0-1.7.8-1.7 1.7 0 1 .8 1.7 1.7 1.7h.6c5.1 0 9 5.5 9 10.9 0 6.1-5 11.1-11.1 11.1h-20.4c-19 0-47.6-7.4-47.6-52.9 0-51.5 25-60.5 53-60.5" fill="#fff"/>
</svg>