<?xml version="1.0" encoding="utf-8"?>
<!-- Generator: Adobe Illustrator 22.1.0, SVG Export Plug-In . SVG Version: 6.00 Build 0)  -->
<svg version="1.1" id="Layer_1" xmlns="http://www.w3.org/2000/svg" xmlns:xlink="http://www.w3.org/1999/xlink" x="0px" y="0px"
	 viewBox="0 0 128 128" style="enable-background:new 0 0 128 128;" xml:space="preserve">
<style type="text/css">
	.st0{fill:#26A6D1;}
	.st1{fill:#FFFFFF;}
</style>
<g>
	<path class="st0" d="M64,0c35.3,0,64,28.7,64,64c0,35.3-28.7,64-64,64S0,99.3,0,64C0,28.7,28.7,0,64,0z"/>
	<path class="st1" d="M104,43.1c-2.8,1.2-5.8,2-9,2.4c3.2-1.9,5.7-4.8,6.9-8.4c-3,1.7-6.4,3-9.9,3.7c-2.8-2.9-6.9-4.8-11.4-4.8
		C72,36,65,42.8,65,51.2c0,1.2,0.1,2.3,0.4,3.5C52.5,54,41,47.9,33.3,38.8c-1.3,2.2-2.1,4.8-2.1,7.6c0,5.2,2.8,9.9,6.9,12.6
		c-2.6-0.1-5-0.8-7.1-1.9v0.2c0,7.3,5.4,13.5,12.5,14.8c-1.3,0.3-2.7,0.5-4.1,0.5c-1,0-2-0.1-2.9-0.3c2,6,7.7,10.4,14.6,10.5
		C45.7,87,39,89.4,31.7,89.4c-1.3,0-2.5-0.1-3.7-0.2c6.9,4.3,15.1,6.8,23.9,6.8c28.7,0,44.4-23.1,44.4-43.1l0-2
		C99.3,48.8,101.9,46.2,104,43.1z"/>
</g>
</svg>
