<svg xmlns="http://www.w3.org/2000/svg" id= "tutorial-pointer" viewBox="0 0 120 120">
  <g>
    <path d="M70 29.5c0-3.6-.4-8.9-4-12.9-3.4-3.8-8.9-5.7-16.9-5.7-6.9 0-12 2-15.1 6-2.2 2.8-3.4 6.6-3.4 10.9v6.1c0 3.3 2.7 6 6 6 .8 0 1.5-.1 2.2-.4 1 2 3 3.3 5.4 3.3.8 0 1.6-.2 2.4-.4 1 1.9 3 3.2 5.3 3.2.6 0 1.1-.1 1.7-.2v10c0 3 2.7 5.6 6 5.6s6-2.7 6-6V36.6c2.2-.7 4.2-2.8 4.3-5.7.1-.5.1-.9.1-1.4z" fill="#1A1A1A"/>
    <path d="M67.3 29.5v1.2c-.1 2.1-1.9 3.4-3.4 3.4v-3.9c0-.5-.3-.5-.4-.5s-.5.1-.5.5v24.7c0 1.8-1.5 3.3-3.3 3.3-1.7 0-3.3-1.3-3.3-2.9v-.1-15.7c0-.3-.2-.5-.5-.5s-.5.2-.5.5v.2c0 1.8-1.5 3.3-3.3 3.3-1.8 0-3.3-1.5-3.3-3.3v-2.4c0-.3-.2-.5-.5-.5s-.5.2-.5.5v.1c0 1.7-1.6 2.8-3.3 2.8-1.8 0-3.3-1.5-3.3-3.3v-2.4c0-.3-.2-.5-.5-.5s-.7.2-.7.5v.2c0 1.5-1.6 2.7-3.3 2.7-1.8 0-3.3-1.5-3.3-3.3V28c0-5.7 2.2-14.2 15.8-14.2 15.4-.1 18.1 7.4 18.1 15.7" fill="#FFF"/>
    <animateTransform attributeName="transform"
      type="translate"
      from="0 0"
      to="0 -10"
      dur="1s"
      repeatCount="indefinite"
      values="0 0; 0 -10; 0 0"/>
  </g>
</svg>