<svg id="Layer_1" xmlns="http://www.w3.org/2000/svg" viewBox="0 0 20 20">
  <style>
    .st0{fill:#ffa6e0}
  </style>
  <path class="st0" d="M13.8 0H6.3C2.8 0 0 2.8 0 6.3v7.5C0 17.2 2.8 20 6.3 20h7.5c3.4 0 6.3-2.8 6.3-6.3V6.3C20 2.8 17.2 0 13.8 0zm3.9 13c0 2.6-2.1 4.7-4.7 4.7H7c-2.6 0-4.7-2.1-4.7-4.7V7c0-2.6 2.1-4.7 4.7-4.7h6c2.6 0 4.7 2.1 4.7 4.7v6z"/>
  <circle class="st0" cx="5.9" cy="7.2" r="1.8"/>
  <circle class="st0" cx="14.1" cy="7.2" r="1.8"/>
  <path class="st0" d="M13.5 11.4l-1.6.3c-2.5.4-1.3.4-3.8 0l-1.6-.3c-.5 0-.9.4-.9.9s.4.9.9.9l1 .2V15c0 1.1 1.1 2.1 2.4 2.1 1.3 0 2.4-.9 2.4-2.1v-1.5l1-.2c.5 0 .9-.4.9-.9s-.3-1-.7-1z"/>
</svg>