<svg id="Layer_1" xmlns="http://www.w3.org/2000/svg" viewBox="0 0 120 120">
  <style>
    .add-button-fill{fill:#d9e021}
  </style>
  <circle class="add-button-fill" cx="60" cy="60" r="60"/>
  <circle cx="60" cy="60" r="50.7" fill="#bac201"/>
  <path d="M60 89.8c-5.5 0-9.9-4.4-9.9-9.9V70h-9.9c-5.5 0-9.9-4.4-9.9-9.9s4.4-9.9 9.9-9.9h9.9v-9.9c0-5.5 4.4-9.9 9.9-9.9s9.9 4.4 9.9 9.9v9.9h9.9c5.5 0 9.9 4.4 9.9 9.9S85.3 70 79.8 70h-9.9v9.9c0 5.4-4.4 9.9-9.9 9.9z" fill="#fbff96"/>
  <path class="add-button-fill" d="M79.8 53.1H66.9V40.2c0-3.8-3.1-6.9-6.9-6.9s-6.9 3.1-6.9 6.9v12.9H40.2c-3.8 0-6.9 3.1-6.9 6.9 0 3.8 3.1 6.9 6.9 6.9h12.9v12.9c0 3.8 3.1 6.9 6.9 6.9s6.9-3.1 6.9-6.9V66.9h12.9c3.8 0 6.9-3.1 6.9-6.9.1-3.8-3-6.9-6.9-6.9z"/>
</svg>