<svg id="Layer_1" xmlns="http://www.w3.org/2000/svg" viewBox="0 0 68 68">
  <style>
    .brain-button-fill{fill:#fff}
  </style>
  <circle cx="34" cy="34" r="34" fill="#f75555"/>
  <path class="brain-button-fill" d="M42.7 22.6H38c-.2-2-2-3.6-4-3.6-2.1 0-3.8 1.6-4 3.6h-4.7c-1.9 0-3.4 1.5-3.4 3.4v.2c0 1.4.9 2.7 2.2 3.2v16.2c0 1.9 1.5 3.4 3.4 3.4h13.1c1.9 0 3.4-1.5 3.4-3.4V29.4c1.3-.5 2.2-1.7 2.2-3.2V26c0-1.9-1.6-3.4-3.5-3.4zm-8.7-2c1.2 0 2.2.9 2.4 2h-4.8c.2-1.2 1.2-2 2.4-2zm8.4 25c0 1-.8 1.8-1.8 1.8H27.4c-1 0-1.8-.8-1.8-1.8v-16h16.7v16zm2.1-19.4c0 1-.8 1.8-1.8 1.8H25.3c-1 0-1.8-.8-1.8-1.8V26c0-1 .8-1.8 1.8-1.8h17.5c1 0 1.8.8 1.8 1.8l-.1.2z"/>
  <path class="brain-button-fill" d="M29.6 45.3c.5 0 .8-.4.8-.8v-9.2c0-.5-.4-.8-.8-.8-.5 0-.8.4-.8.8v9.2c0 .5.4.8.8.8zM34 45.3c.5 0 .8-.4.8-.8v-9.2c0-.5-.4-.8-.8-.8-.5 0-.8.4-.8.8v9.2c0 .5.3.8.8.8zM38.4 45.3c.5 0 .8-.4.8-.8v-9.2c0-.5-.4-.8-.8-.8-.5 0-.8.4-.8.8v9.2c0 .5.3.8.8.8z"/>
</svg>