<svg id="Layer_1" xmlns="http://www.w3.org/2000/svg" viewBox="0 0 32 32">
  <style>
    .bin{fill:var(--fill, #fff)}
  </style>
  <path class="bin" d="M12.2 1.5c0-.8.7-1.5 1.5-1.5h5c.8 0 1.5.7 1.5 1.5S19.5 3 18.7 3h-5c-.9 0-1.5-.7-1.5-1.5zM27.6 8H4.8c-1 0-1.6-.7-1.6-1.5S3.9 5 4.8 5h22.8c.9 0 1.6.7 1.6 1.5S28.4 8 27.6 8z"/>
  <path class="bin" d="M24.2 7.5V28c0 .6-.4 1-1 1h-14c-.6 0-1-.4-1-1V7.5c0-.8-.7-1.5-1.5-1.5s-1.5.7-1.5 1.5V29c0 1.6 1.3 3 3 3h16c1.6 0 3-1.4 3-3V7.5c0-.8-.7-1.5-1.5-1.5-.9 0-1.5.7-1.5 1.5z"/>
  <path class="bin" d="M13.2 27c-.8 0-1.5-.7-1.5-1.5v-13c0-.8.7-1.5 1.5-1.5s1.5.7 1.5 1.5v13c0 .8-.7 1.5-1.5 1.5zM19.2 27c-.8 0-1.5-.7-1.5-1.5v-13c0-.8.7-1.5 1.5-1.5s1.5.7 1.5 1.5v13c0 .8-.7 1.5-1.5 1.5z"/>
</svg>