<?xml version="1.0" encoding="utf-8"?>
<!-- Generator: Adobe Illustrator 22.0.1, SVG Export Plug-In . SVG Version: 6.00 Build 0)  -->
<svg version="1.1" id="Layer_1" xmlns="http://www.w3.org/2000/svg" xmlns:xlink="http://www.w3.org/1999/xlink" x="0px" y="0px"
	 viewBox="0 0 32 32" style="enable-background:new 0 0 32 32;" xml:space="preserve">
<style type="text/css">
	.st0{fill:#FFFFFF;}
</style>
<path class="st0" d="M12.2,1.5L12.2,1.5c0-0.8,0.7-1.5,1.5-1.5h5c0.8,0,1.5,0.7,1.5,1.5l0,0c0,0.8-0.7,1.5-1.5,1.5h-5
	C12.8,3,12.2,2.3,12.2,1.5z"/>
<path class="st0" d="M27.6,8H4.8c-1,0-1.6-0.7-1.6-1.5l0,0C3.2,5.7,3.9,5,4.8,5h22.8c0.9,0,1.6,0.7,1.6,1.5l0,0
	C29.2,7.3,28.4,8,27.6,8z"/>
<path class="st0" d="M24.2,7.5V28c0,0.6-0.4,1-1,1h-14c-0.6,0-1-0.4-1-1V7.5C8.2,6.7,7.5,6,6.7,6l0,0C5.9,6,5.2,6.7,5.2,7.5V29
	c0,1.6,1.3,3,3,3h16c1.6,0,3-1.4,3-3V7.5c0-0.8-0.7-1.5-1.5-1.5l0,0C24.8,6,24.2,6.7,24.2,7.5z"/>
<path class="st0" d="M13.2,27L13.2,27c-0.8,0-1.5-0.7-1.5-1.5v-13c0-0.8,0.7-1.5,1.5-1.5l0,0c0.8,0,1.5,0.7,1.5,1.5v13
	C14.7,26.3,14,27,13.2,27z"/>
<path class="st0" d="M19.2,27L19.2,27c-0.8,0-1.5-0.7-1.5-1.5v-13c0-0.8,0.7-1.5,1.5-1.5l0,0c0.8,0,1.5,0.7,1.5,1.5v13
	C20.7,26.3,20,27,19.2,27z"/>
</svg>
