<svg xmlns="http://www.w3.org/2000/svg" viewBox="0 0 100 100">
  <circle cx="50" cy="50.2" r="50" fill="#ca82ff"/>
  <circle cx="50" cy="50.2" r="40" fill="#af5aed"/>
  <path d="M62.9 56c-3.3 0-6.1 2.2-6.9 5.4H44c-.2-.7-.5-1.4-.8-2l4.8-4.8c2.5 1.1 5.5 0 6.6-2.5.3-.6.4-1.3.4-2.1 0-.7-.2-1.4-.4-2.1l4.7-4.7c3.3 2 7.7 1 9.7-2.3 2-3.3 1-7.7-2.3-9.7s-7.7-1-9.7 2.3c-.4.6-.7 1.3-.8 2H44c-.9-3.8-4.7-6.1-8.5-5.2s-6.1 4.7-5.2 8.5c.9 3.8 4.7 6.1 8.5 5.2 2.6-.6 4.6-2.6 5.2-5.2h12c.2.7.5 1.4.8 2l-4.6 4.6c-.7-.2-1.4-.4-2.2-.4-2.8 0-5 2.2-5 5 0 .8.2 1.6.5 2.2L40.8 57c-3.3-2-7.7-1-9.7 2.3-2 3.3-1 7.7 2.3 9.7 3.3 2 7.7 1 9.7-2.3.4-.6.7-1.3.8-2H56c.9 3.8 4.7 6.1 8.5 5.2 3.8-.9 6.1-4.7 5.2-8.5-.7-3.2-3.5-5.4-6.8-5.4zM37.1 41c-2.1 0-3.7-1.7-3.7-3.7s1.7-3.7 3.7-3.7 3.7 1.7 3.7 3.7-1.6 3.7-3.7 3.7zM50 47.5c1.4 0 2.5 1.1 2.5 2.5s-1.1 2.5-2.5 2.5-2.5-1.1-2.5-2.5 1.1-2.5 2.5-2.5zm12.9 19.3c-2.1 0-3.7-1.7-3.7-3.7 0-2.1 1.7-3.7 3.7-3.7s3.7 1.7 3.7 3.7c.1 2-1.6 3.7-3.7 3.7z" fill="#fff"/>
</svg>