<svg id="Layer_1" xmlns="http://www.w3.org/2000/svg" viewBox="0 0 128 128">
  <path fill="#ffb200" d="M53.4 45.7c-1.7 0-3.2 1.1-3.8 2.7H35.8c-.6-1.5-2-2.7-3.8-2.7-2.2 0-4 1.8-4 4s1.8 4 4 4c1.7 0 3.2-1.1 3.8-2.7h13.8c.6 1.5 2 2.7 3.8 2.7 2.2 0 4-1.8 4-4s-1.8-4-4-4zm-21.3 5.4c-.7 0-1.3-.6-1.3-1.3s.6-1.3 1.3-1.3c.7 0 1.3.6 1.3 1.3s-.6 1.3-1.3 1.3zm21.3 0c-.7 0-1.3-.6-1.3-1.3s.6-1.3 1.3-1.3 1.3.6 1.3 1.3-.6 1.3-1.3 1.3z"/>
  <path fill="#ffb200" d="M64.1 54v-8.2c0-.4-.1-.7-.4-.9l-5.3-5.3c-.2-.3-.6-.4-.9-.4h-4.2c-.6-1.5-2-2.7-3.8-2.7-2.2 0-4 1.8-4 4s1.8 4 4 4c1.7 0 3.2-1.1 3.8-2.7H57l4.6 4.6V54c-1.5.6-2.7 2-2.7 3.8 0 2.2 1.8 4 4 4s4-1.8 4-4c-.2-1.8-1.3-3.3-2.8-3.8zM49.4 41.7c-.7 0-1.3-.6-1.3-1.3s.6-1.3 1.3-1.3 1.3.6 1.3 1.3-.6 1.3-1.3 1.3zm13.3 17.4c-.7 0-1.3-.6-1.3-1.3s.6-1.3 1.3-1.3c.7 0 1.3.6 1.3 1.3s-.5 1.3-1.3 1.3zm25.4 0c-.6 0-1.2.2-1.7.4l-2.3-2.3V44.4c0-.4-.1-.7-.4-.9L70.3 30.1c.3-.5.4-1.1.4-1.7 0-2.2-1.8-4-4-4s-4 1.8-4 4 1.8 4 4 4c.6 0 1.2-.2 1.7-.4l13 13v12.8c0 .4.1.7.4.9l2.7 2.7c-.3.5-.4 1.1-.4 1.7 0 2.2 1.8 4 4 4s4-1.8 4-4-1.8-4-4-4zM66.7 29.7c-.7 0-1.3-.6-1.3-1.3s.6-1.3 1.3-1.3 1.3.6 1.3 1.3-.5 1.3-1.3 1.3zm21.4 34.7c-.7 0-1.3-.6-1.3-1.3s.6-1.3 1.3-1.3 1.3.6 1.3 1.3-.6 1.3-1.3 1.3zm12-21.1v-5.6c0-.4-.1-.7-.4-.9l-9.3-9.3c-.2-.3-.6-.4-.9-.4h-6.9c-.6-1.5-2-2.7-3.8-2.7-2.2 0-4 1.8-4 4s1.8 4 4 4c1.7 0 3.2-1.1 3.8-2.7H89l8.6 8.6v5c-1.5.6-2.7 2-2.7 3.8 0 2.2 1.8 4 4 4s4-1.8 4-4c-.2-1.8-1.3-3.2-2.8-3.8zM78.7 29.7c-.7 0-1.3-.6-1.3-1.3s.6-1.3 1.3-1.3 1.3.6 1.3 1.3-.5 1.3-1.3 1.3zm20 18.7c-.7 0-1.3-.6-1.3-1.3s.6-1.3 1.3-1.3 1.3.6 1.3 1.3-.5 1.3-1.3 1.3zM81.4 96.7V77.5c1.5-.6 2.7-2 2.7-3.8 0-2.2-1.8-4-4-4-1.7 0-3.2 1.1-3.8 2.7H62.5c-.6-1.5-2-2.7-3.8-2.7s-3.2 1.1-3.8 2.7h-7.7l-5-5c.3-.5.4-1.1.4-1.7 0-2.2-1.8-4-4-4s-4 1.8-4 4 1.8 4 4 4c.6 0 1.2-.2 1.7-.4l5.3 5.3c.2.3.6.4.9.4H55c.6 1.5 2 2.7 3.8 2.7s3.2-1.1 3.8-2.7h13.8c.4 1.1 1.3 2 2.4 2.4v19.2c-1.5.6-2.7 2-2.7 3.8 0 2.2 1.8 4 4 4s4-1.8 4-4c0-1.7-1.2-3.2-2.7-3.7zM38.7 67.1c-.7 0-1.3-.6-1.3-1.3s.6-1.3 1.3-1.3c.7 0 1.3.6 1.3 1.3s-.5 1.3-1.3 1.3zm20 8c-.7 0-1.3-.6-1.3-1.3 0-.7.6-1.3 1.3-1.3.7 0 1.3.6 1.3 1.3.1.7-.5 1.3-1.3 1.3zm21.4 26.6c-.7 0-1.3-.6-1.3-1.3 0-.7.6-1.3 1.3-1.3s1.3.6 1.3 1.3c0 .7-.6 1.3-1.3 1.3zm0-26.6c-.7 0-1.3-.6-1.3-1.3 0-.7.6-1.3 1.3-1.3s1.3.6 1.3 1.3c0 .7-.6 1.3-1.3 1.3z"/>
  <path fill="#ffb200" d="M74.7 51.3v-4.2c0-.4-.1-.7-.4-.9l-16-16c.3-.5.4-1.1.4-1.7 0-2.2-1.8-4-4-4-1.7 0-3.2 1.1-3.8 2.7h-5.6c-.7 0-1.3.6-1.3 1.3v3.4l-5 5c-.5-.3-1.1-.4-1.7-.4-2.2 0-4 1.8-4 4s1.8 4 4 4 4-1.8 4-4c0-.6-.2-1.2-.4-1.7l5.3-5.3c.3-.2.4-.6.4-.9v-2.7H51c.6 1.5 2 2.7 3.8 2.7.6 0 1.2-.2 1.7-.4l15.6 15.6v3.7c-1.5.6-2.7 2-2.7 3.8 0 2.2 1.8 4 4 4s4-1.8 4-4c0-2-1.1-3.4-2.7-4zm-37.3-9.6c-.7 0-1.3-.6-1.3-1.3s.6-1.3 1.3-1.3 1.3.6 1.3 1.3-.6 1.3-1.3 1.3zm17.3-12c-.7 0-1.3-.6-1.3-1.3s.6-1.3 1.3-1.3c.7 0 1.3.6 1.3 1.3s-.5 1.3-1.3 1.3zm18.7 26.7c-.7 0-1.3-.6-1.3-1.3s.6-1.3 1.3-1.3 1.3.6 1.3 1.3-.6 1.3-1.3 1.3z"/>
  <path fill="#ffb200" d="M70.7 61.7c-1.7 0-3.2 1.1-3.8 2.7H51.3l-7.6-7.6c-.2-.3-.6-.4-.9-.4H28.6l-3.2-3.2V42.3L35.7 32c.5.3 1.1.4 1.7.4 2.2 0 4-1.8 4-4s-1.8-4-4-4-4 1.8-4 4c0 .6.2 1.2.4 1.7L23.1 40.8c-.3.2-.4.6-.4.9v12c0 .4.1.7.4.9l4 4c.2.3.6.4.9.4h14.1l7.6 7.6c.2.3.6.4.9.4H67c.6 1.5 2 2.7 3.8 2.7 2.2 0 4-1.8 4-4-.1-2.2-1.9-4-4.1-4zM37.4 27.1c.7 0 1.3.6 1.3 1.3s-.6 1.3-1.3 1.3-1.3-.6-1.3-1.3.6-1.3 1.3-1.3zm33.3 40c-.7 0-1.3-.6-1.3-1.3s.6-1.3 1.3-1.3 1.3.6 1.3 1.3-.5 1.3-1.3 1.3zm28-10.7c-.6 0-1.2.2-1.7.4l-5-5v-7.7c1.5-.6 2.7-2 2.7-3.8 0-2.2-1.8-4-4-4s-4 1.8-4 4c0 1.7 1.1 3.2 2.7 3.8v8.2c0 .4.1.7.4.9l5.3 5.3c-.3.5-.4 1.1-.4 1.7 0 1.7 1.1 3.2 2.7 3.8v1L87.1 75.5c-.3.2-.4.6-.4.9V78c-1.5.6-2.7 2-2.7 3.8 0 1.7 1.1 3.2 2.7 3.8v3.2c-1.5.6-2.7 2-2.7 3.8 0 2.2 1.8 4 4 4s4-1.8 4-4c0-1.7-1.1-3.2-2.7-3.8v-3.2c1.5-.6 2.7-2 2.7-3.8s-1.1-3.2-2.7-3.8v-1l10.3-10.3c.3-.2.4-.6.4-.9v-1.6c1.5-.6 2.7-2 2.7-3.8 0-2.2-1.8-4-4-4zm-8-14.7c-.7 0-1.3-.6-1.3-1.3s.6-1.3 1.3-1.3 1.3.6 1.3 1.3-.5 1.3-1.3 1.3zm-2.6 52c-.7 0-1.3-.6-1.3-1.3 0-.7.6-1.3 1.3-1.3s1.3.6 1.3 1.3c0 .7-.6 1.3-1.3 1.3zm0-10.6c-.7 0-1.3-.6-1.3-1.3 0-.7.6-1.3 1.3-1.3s1.3.6 1.3 1.3c0 .7-.6 1.3-1.3 1.3zm10.6-21.4c-.7 0-1.3-.6-1.3-1.3s.6-1.3 1.3-1.3 1.3.6 1.3 1.3-.5 1.3-1.3 1.3z"/>
</svg>