<?xml version="1.0" encoding="utf-8"?>
<!-- Generator: Adobe Illustrator 18.0.0, SVG Export Plug-In . SVG Version: 6.00 Build 0)  -->
<!DOCTYPE svg PUBLIC "-//W3C//DTD SVG 1.1//EN" "http://www.w3.org/Graphics/SVG/1.1/DTD/svg11.dtd">
<svg version="1.1" id="Layer_1" xmlns="http://www.w3.org/2000/svg" xmlns:xlink="http://www.w3.org/1999/xlink" x="0px" y="0px"
	 viewBox="0 0 294 294" enable-background="new 0 0 294 294" xml:space="preserve" width="16" height="16">
<g>
	<path fill="#F5F5F5" d="M147,275.6L147,275.6c71,0,128.6-57.6,128.6-128.6S218,18.4,147,18.4S18.4,76,18.4,147S76,275.6,147,275.6
		L147,275.6z M147,294L147,294C65.8,294,0,228.2,0,147S65.8,0,147,0s147,65.8,147,147S228.2,294,147,294L147,294z M68.9,147
		c0-7.6,6.1-13.8,13.9-13.8h128.5c7.7,0,13.9,6.1,13.9,13.8l0,0c0,7.6-6.1,13.8-13.9,13.8H82.8C75.1,160.8,68.9,154.7,68.9,147
		L68.9,147z"/>
</g>
</svg>
