<?xml version="1.0" encoding="utf-8"?>
<!-- Generator: Adobe Illustrator 22.0.1, SVG Export Plug-In . SVG Version: 6.00 Build 0)  -->
<svg version="1.1" id="icon" xmlns="http://www.w3.org/2000/svg" xmlns:xlink="http://www.w3.org/1999/xlink" x="0px" y="0px"
	 viewBox="0 0 29 22" enable-background="new 0 0 29 22" xml:space="preserve">
<path id="base" fill="#B3C400" stroke="#B3C400" stroke-width="2" stroke-miterlimit="10" d="M17.8,21H3c-1.1,0-2-0.9-2-2V3
	c0-1.1,0.9-2,2-2h14.8c0.8,0,1.6,0.3,2.1,0.9l7.4,7.4c0.7,0.7,0.4,3,0,3.4l-7.4,7.4C19.3,20.7,18.6,21,17.8,21z"/>
<path id="color" fill="#D0E400" stroke="#D0E400" stroke-width="2" stroke-miterlimit="10" d="M17.8,19H3c-1.1,0-2-0.9-2-2V3
	c0-1.1,0.9-2,2-2h14.8c0.8,0,1.6,0.3,2.1,0.9l7.4,7.4c0.4,0.4,0.4,1,0,1.4l-7.4,7.4C19.3,18.7,18.6,19,17.8,19z"/>
<line id="drag-indicator" opacity="0.1" fill="none" stroke="#000000" stroke-width="2" stroke-miterlimit="10" x1="5" y1="4" x2="5" y2="15"/>
</svg>
