<svg xmlns="http://www.w3.org/2000/svg" viewBox="0 0 42 32">
  <g>
    <path d="M11.9 3.4c-2.3 0-5.7.3-8.2 2.5C1.2 8.1 0 11.7 0 16.7c0 4.4 1.3 7.7 3.8 9.7 1.8 1.4 4.2 2.2 7 2.2h3.9c2.1 0 3.9-1.7 3.9-3.9 0-.5-.1-1-.3-1.4 1.3-.6 2.1-1.9 2.1-3.4 0-.5-.1-1-.3-1.5 1.2-.7 2-1.9 2-3.4 0-.4-.1-.7-.2-1.1H28.3c1.9 0 3.6-1.8 3.6-3.8 0-2.1-1.7-3.9-3.9-3.9H16.4c-.5-1.4-1.8-2.7-3.7-2.7-.3-.1-.6-.1-.8-.1z" fill="#1a1a1a"/>
    <path d="M11.9 5.1h.8c1.4 0 2.2 1.2 2.2 2.2h-2.5c-.4 0-.4.2-.4.3s0 .3.4.3h15.8c1.2 0 2.1 1 2.1 2.1s-.8 2.1-1.8 2.1H18.3c-.2 0-.3.2-.3.3s.2.3.3.3h.1c1.2 0 2.1 1 2.1 2.1 0 1.2-1 2.1-2.1 2.1h-1.5c-.2 0-.3.2-.3.3 0 .2.2.3.3.3h.1c1.1 0 1.8 1 1.8 2.1 0 1.2-1 2.1-2.1 2.1L15 22c-.2 0-.3.1-.3.3s.1.3.3.3h.1c1 0 1.7 1.1 1.7 2.1 0 1.2-1 2.1-2.1 2.1h-3.9c-3.6 0-9.1-1.4-9.1-10.1 0-9.8 4.8-11.6 10.2-11.6" fill="#fff"/>
    <animateTransform attributeName="transform"
      type="translate"
      from="0 0"
      to="10 0"
      dur="1s"
      repeatCount="indefinite"
      values="0 0; 10 0; 0 0"/>
  </g>
</svg>