<svg id="Layer_1" xmlns="http://www.w3.org/2000/svg" viewBox="0 0 164 98">
  <style>
    .hb1{fill:#9cc}.hb2{fill:#528cbf}.hb3{fill:#fff}
  </style>
  <path class="hb1" d="M130.5 14c-10.3-.4-19.6 3.6-26.3 10.3-4.1 4.1-10.9 3.1-14-1.7C81 8.2 64.3-1.1 45.7.1 20.9 1.8 1 22.2 0 47c-1.1 27.9 21.3 51 49 51 17.3 0 32.6-9 41.3-22.6 3.2-4.9 10-5.6 14.2-1.4 6.3 6.2 15 10.1 24.5 10.1 20.1 0 36.3-17.1 34.9-37.5-1.2-17.7-15.7-31.8-33.4-32.6z"/>
  <g id="undo-button">
  <circle class="hb2" cx="49" cy="49" r="39"/>
  <path class="hb3" d="M49.1 70.3c-2 0-3.8-.8-5.2-2.2l-14-14c-1.4-1.4-2.2-3.3-2.2-5.2 0-2 .8-3.8 2.2-5.2l14-14c1.4-1.4 3.3-2.2 5.2-2.2s3.8.8 5.2 2.2c2.9 2.9 2.9 7.6 0 10.5l-1.5 1.5h9.9c4 0 7.3 3.3 7.3 7.3s-3.3 7.3-7.3 7.3h-9.9l1.5 1.5c1.4 1.4 2.2 3.3 2.2 5.2 0 2-.8 3.8-2.2 5.2-1.4 1.3-3.2 2.1-5.2 2.1z"/>
  <path class="hb1" d="M62.7 44.6H45.6l6.6-6.6c1.7-1.7 1.7-4.5 0-6.2-1.7-1.7-4.5-1.7-6.2 0l-14 14c-1.7 1.7-1.7 4.5 0 6.2l14 14c1.7 1.7 4.5 1.7 6.2 0 1.7-1.7 1.7-4.5 0-6.2l-6.6-6.6h17.1c2.4 0 4.3-1.9 4.3-4.3s-1.9-4.3-4.3-4.3z"/>
  </g>
  <g id="redo-button">
  <circle class="hb2" cx="129" cy="49" r="27.9"/>
  <path class="hb3" d="M129 64.2c1.4 0 2.7-.5 3.7-1.5l10-10c1-1 1.5-2.3 1.5-3.7 0-1.4-.5-2.7-1.5-3.7l-10-10c-1-1-2.3-1.5-3.7-1.5-1.4 0-2.7.5-3.7 1.5-2.1 2.1-2.1 5.4 0 7.5l1.1 1.1h-7.1c-2.9 0-5.2 2.3-5.2 5.2s2.3 5.2 5.2 5.2h7.1l-1.1 1.1c-1 1-1.5 2.3-1.5 3.7 0 1.4.5 2.7 1.5 3.7.9.9 2.2 1.4 3.7 1.4z"/>
  <path class="hb1" d="M119.2 45.8h12.2l-4.7-4.7c-1.2-1.2-1.2-3.2 0-4.5 1.2-1.2 3.2-1.2 4.5 0l10 10c1.2 1.2 1.2 3.2 0 4.5l-10 10c-1.2 1.2-3.2 1.2-4.5 0-1.2-1.2-1.2-3.2 0-4.5l4.7-4.7h-12.2c-1.7 0-3.1-1.4-3.1-3.1 0-1.6 1.4-3 3.1-3z"/>
  </g>
</svg>