<svg xmlns="http://www.w3.org/2000/svg" viewBox="0 0 20 21">
  <style>
    .st2{fill:#E884C9}
  </style>
  <path d="M13.8.4H6.2C3 .4.4 3 .4 6.2v3.4C.4 11 1.5 12 2.8 12h14.4c1.3 0 2.4-1.1 2.4-2.4V6.2C19.6 3 17 .4 13.8.4zm3.8 9.2c0 .2-.2.4-.4.4H2.8c-.2 0-.4-.2-.4-.4V6.2c0-2.1 1.7-3.8 3.8-3.8h7.6c2.1 0 3.8 1.7 3.8 3.8v3.4z" fill="#98C6DE"/>
  <path d="M13.7 21H6.3c-1.8 0-3.2-1.5-3.2-3.2V6.2h13.8v11.6c0 1.7-1.5 3.2-3.2 3.2z" fill="#fff"/>
  <path class="st2" d="M16.9 6.2H3.1v3.3h2.2v5.4c0 1.2 1 2.3 2.3 2.3h.7c1.2 0 2.3-1 2.3-2.3V9.5h2v1.4c0 .8.7 1.5 1.5 1.5s1.5-.7 1.5-1.5V9.5H17V6.2z"/>
  <path transform="rotate(90 10 1.3795)" class="st2" d="M8.6-2.1h2.8v6.9H8.6z"/>
</svg>