<svg xmlns="http://www.w3.org/2000/svg" viewBox="0 0 16 16">
  <path d="M10.6 9.2c.2.1.4.1.6.1.5 0 .9-.2 1.2-.5.4-.4.6-1.1.5-1.7l2.3-2.3c.5-.5.8-1.2.8-2s-.3-1.5-.8-2-1.2-.8-2-.8-1.5.3-2 .8L8.9 3.1c-.1 0-.3-.1-.4-.1-.5 0-.9.2-1.3.5-.5.5-.6 1.3-.4 1.9l3.8 3.8z" fill="#628dd1"/>
  <path d="M6.8 5.4l-5.7 5.7c-.1.1-.2.3-.2.5l.1 1.7-.8 1.4c-.3.3-.2.7 0 .9l.2.2c.2.1.3.2.5.2.1 0 .3 0 .4-.1l1.4-.9 1.7.1c.2 0 .4-.1.5-.2l5.7-5.7-3.8-3.8zm-2.9 7.8H2.8v-1.1L8 6.8 9.2 8l-5.3 5.2z" fill="#98c6de"/>
  <path fill="#ffce35" d="M4.7 10.1l-1.5 1.6-.4.4v1.1h1.1l1.6-1.5L7 10.1z"/>
</svg>