<svg id="Layer_1" xmlns="http://www.w3.org/2000/svg" viewBox="0 0 100 100">
  <style>
    .play-button-fill{fill:#69d6a4}
  </style>
  <circle class="play-button-fill" cx="50" cy="50" r="50"/>
  <circle cx="50" cy="50" r="40" fill="#22b573"/>
  <path d="M41.9 69.3c-2.7 0-4.9-2.2-4.9-4.9v-28c0-2.7 2.2-4.9 4.9-4.9.9 0 1.7.2 2.5.7l24.3 14c1.5.9 2.5 2.5 2.5 4.3 0 1.7-.9 3.4-2.5 4.3l-24.3 14c-.8.3-1.6.5-2.5.5z" fill="#b5ffde"/>
  <path class="play-button-fill" d="M40 50.4v-14c0-1.5 1.6-2.4 2.9-1.7l12.1 7 12.1 7c1.3.7 1.3 2.6 0 3.3L55 59l-12.1 7c-1.3.7-2.9-.2-2.9-1.7V50.4z"/>
</svg>