<?xml version="1.0" encoding="utf-8"?>
<!-- Generator: Adobe Illustrator 18.0.0, SVG Export Plug-In . SVG Version: 6.00 Build 0)  -->
<!DOCTYPE svg PUBLIC "-//W3C//DTD SVG 1.1//EN" "http://www.w3.org/Graphics/SVG/1.1/DTD/svg11.dtd">
<svg version="1.1" id="Layer_1" xmlns="http://www.w3.org/2000/svg" xmlns:xlink="http://www.w3.org/1999/xlink" x="0px" y="0px"
	 viewBox="0 0 100 100" enable-background="new 0 0 100 100" xml:space="preserve">
<g>
	<g>
		<path fill="#9DD3FF" d="M22.7,46.8c0-14.5,11.8-26.3,26.3-26.3h9.3c1.5,0,2.8,1.3,2.8,2.8v0.9c0,1.5-1.3,2.8-2.8,2.8H49
			c-10.9,0-19.8,8.9-19.8,19.8S38.1,66.6,49,66.6h17.2L54.3,54.7c-1.3-1.3-1.3-3.3,0-4.6c1.2-1.2,3.4-1.2,4.6,0l17.4,17.4
			c0.6,0.6,1,1.4,1,2.3c0,0.9-0.3,1.7-1,2.3L59,89.5c-1.2,1.2-3.4,1.2-4.6,0c-1.3-1.3-1.3-3.3,0-4.6l11.8-11.8H49
			C34.5,73.1,22.7,61.3,22.7,46.8z"/>
	</g>
</g>
</svg>
