<svg xmlns="http://www.w3.org/2000/svg" viewBox="0 0 55 55">
  <circle cx="27.5" cy="27.5" r="27.5" fill="#528cbf"/>
  <path d="M27 43.6c-1.8 0-3.4-.7-4.7-1.9-2.2-2.2-2.5-5.6-1-8.2h-4c-3.6 0-6.6-2.9-6.6-6.6 0-3.6 2.9-6.6 6.6-6.6h4c-1.6-2.6-1.2-5.9 1-8.2 1.3-1.3 2.9-1.9 4.7-1.9 1.8 0 3.4.7 4.7 1.9l10 10c1.3 1.3 1.9 2.9 1.9 4.7 0 1.8-.7 3.4-1.9 4.7l-10 10c-1.3 1.4-3 2.1-4.7 2.1z" fill="#fff"/>
  <path d="M17.2 23.8h12.2l-4.7-4.7c-1.2-1.2-1.2-3.2 0-4.5 1.2-1.2 3.2-1.2 4.5 0l10 10c1.2 1.2 1.2 3.2 0 4.5l-10 10c-1.2 1.2-3.2 1.2-4.5 0-1.2-1.2-1.2-3.2 0-4.5l4.7-4.7H17.2c-1.7 0-3.1-1.4-3.1-3.1s1.4-3 3.1-3z" fill="#9cc"/>
</svg>