<?xml version="1.0" encoding="utf-8"?>
<!-- Generator: Adobe Illustrator 22.1.0, SVG Export Plug-In . SVG Version: 6.00 Build 0)  -->
<svg version="1.1" id="Layer_1" xmlns="http://www.w3.org/2000/svg" xmlns:xlink="http://www.w3.org/1999/xlink" x="0px" y="0px"
	 viewBox="0 0 128 128" style="enable-background:new 0 0 128 128;" xml:space="preserve">
<style type="text/css">
	.st0{fill:#FFDA44;}
	.st1{fill:#FFFFFF;}
</style>
<circle class="st0" cx="64" cy="64" r="64"/>
<g>
	<path class="st1" d="M43.3,53.2c-6,0-10.8,4.8-10.8,10.8c0,6,4.8,10.8,10.8,10.8c2.4,0,4.6-0.8,6.4-2.1L68,81.5
		c-0.1,0.5-0.1,1.1-0.1,1.7c0,6,4.8,10.8,10.8,10.8c6,0,10.8-4.8,10.8-10.8c0-6-4.8-10.8-10.8-10.8c-3.2,0-6,1.4-8,3.5l-17.2-8.3
		c0.4-1.1,0.6-2.4,0.6-3.7c0-1.3-0.2-2.5-0.6-3.7l17.2-8.3c2,2.2,4.8,3.5,8,3.5c6,0,10.8-4.8,10.8-10.8c0-6-4.8-10.8-10.8-10.8
		c-6,0-10.8,4.8-10.8,10.8c0,0.6,0.1,1.1,0.1,1.7l-18.3,8.8C47.9,54,45.7,53.2,43.3,53.2z"/>
</g>
</svg>
