<?xml version="1.0" encoding="utf-8"?>
<!-- Generator: Adobe Illustrator 22.0.1, SVG Export Plug-In . SVG Version: 6.00 Build 0)  -->
<svg version="1.1" id="Layer_1" xmlns="http://www.w3.org/2000/svg" xmlns:xlink="http://www.w3.org/1999/xlink" x="0px" y="0px"
	 viewBox="0 0 18 18" style="enable-background:new 0 0 18 18;" xml:space="preserve">
<style type="text/css">
	.st0{opacity:0.1;}
	.st1{fill:#DB6068;}
</style>
<path class="st0" d="M0,16V2c0-1.1,0.9-2,2-2h14c1.1,0,2,0.9,2,2v14c0,1.1-0.9,2-2,2H2C0.9,18,0,17.1,0,16z"/>
<path class="st1" d="M15.4,2.2H9.1c-0.4,0-0.6,0.5-0.3,0.7l2.4,2.4l-5.9,5.9L2.9,8.8C2.7,8.6,2.2,8.8,2.2,9.1v6.2
	c0,0.2,0.2,0.4,0.4,0.4h6.2c0.4,0,0.6-0.5,0.3-0.7l-2.4-2.4l5.9-5.9l2.4,2.4c0.3,0.3,0.7,0.1,0.7-0.3V2.6
	C15.8,2.4,15.6,2.2,15.4,2.2z"/>
</svg>
