<?xml version="1.0" encoding="utf-8"?>
<!-- Generator: Adobe Illustrator 22.0.1, SVG Export Plug-In . SVG Version: 6.00 Build 0)  -->
<svg version="1.1" id="Layer_1" xmlns="http://www.w3.org/2000/svg" xmlns:xlink="http://www.w3.org/1999/xlink" x="0px" y="0px"
	 viewBox="0 0 18 18" style="enable-background:new 0 0 18 18;" xml:space="preserve">
<style type="text/css">
	.st0{opacity:0.5;fill:#9B8AC1;}
	.st1{fill:#D1BDFF;}
</style>
<g>
	<path class="st0" d="M0,16V2c0-1.1,0.9-2,2-2h14c1.1,0,2,0.9,2,2v14c0,1.1-0.9,2-2,2H2C0.9,18,0,17.1,0,16z"/>
	<path class="st1" d="M15.1,9.2L8.8,2.9C8.6,2.7,8.8,2.2,9.1,2.2h6.2c0.2,0,0.4,0.2,0.4,0.4v6.2C15.8,9.2,15.3,9.4,15.1,9.2z"/>
	<path class="st1" d="M2.9,8.8l6.2,6.2c0.3,0.3,0.1,0.7-0.3,0.7H2.6c-0.2,0-0.4-0.2-0.4-0.4V9.1C2.2,8.8,2.7,8.6,2.9,8.8z"/>
	<rect x="8" y="3.8" transform="matrix(0.7071 0.7071 -0.7071 0.7071 9 -3.7279)" class="st1" width="2.1" height="10.3"/>
</g>
</svg>
