<svg id="Layer_1" xmlns="http://www.w3.org/2000/svg" viewBox="0 0 100 100">
  <style>
    .sb{fill:#fff}
  </style>
  <circle cx="50" cy="50.4" r="50" fill="#ffb963"/>
  <circle cx="50" cy="50.4" r="40" fill="#ff9d26"/>
  <path class="sb" d="M27.8 60.6l1.3 2.1c.1.1.2.2.3.2l2.6.1c.3 0 .5.4.3.6l-1.6 1.9c-.1.1-.1.2-.1.3l.7 2.4c.1.3-.2.6-.5.4l-2.3-.9h-.3L26 69.2c-.3.2-.6 0-.6-.3l.2-2.5c0-.1 0-.2-.1-.3l-2-1.6c-.2-.2-.2-.6.1-.7l2.4-.6c.1 0 .2-.1.3-.2l.9-2.4c.1-.2.5-.3.6 0zM48.6 21.8l1.9.3c.1 0 .2 0 .3-.1l1.4-1.4c.2-.2.5-.1.5.2l.3 1.9c0 .1.1.2.2.2l1.8.9c.2.1.2.4 0 .5l-1.8.9c-.1 0-.1.1-.2.2l-.3 1.9c0 .2-.3.3-.5.2l-1.4-1.4c-.1-.1-.2-.1-.3-.1l-1.9.3c-.2 0-.4-.2-.3-.4l.9-1.7v-.3l-.9-1.7c-.2-.2 0-.5.3-.4zM71.7 61.8c-.9.7-2 1.2-3.2 1.1l-10.2-.1-5.8 8.3c-.2.4-.5.7-.9 1-1.2 1-2.9 1.4-4.5.9-1.6-.5-2.8-1.7-3.3-3.2l-3.1-9.7-9.7-2.9c-1.7-.5-3-1.9-3.4-3.7-.4-1.8.3-3.6 1.6-4.7l.3-.2 8.3-5.9-.2-10.2c0-1.5.6-2.9 1.7-3.8 1.7-1.5 4.2-1.5 6.1-.2l8.2 6 9.6-3.3c1.8-.6 3.7-.2 5 1.1 1.3 1.3 1.8 3.2 1.2 5L66.3 47l6.1 8.1c1.6 2.1 1.3 5-.7 6.7z"/>
  <path d="M43.4 31.3l9.1 6.7c.4.3.8.3 1.3.2l10.7-3.7c1.1-.4 2.1.7 1.8 1.7L62.6 47c-.1.4-.1.9.2 1.3l6.8 9c.7.9 0 2.2-1.1 2.2l-11.3-.1c-.5 0-.9.2-1.1.6l-6.5 9.3c-.7.9-2.1.7-2.4-.4l-3.4-10.8c-.1-.4-.5-.8-.9-.9l-10.8-3.3c-1.1-.3-1.3-1.8-.4-2.4l9.2-6.6c.4-.3.6-.7.6-1.1l-.2-11.3c-.1-1.2 1.2-1.8 2.1-1.2z" fill="#fb0"/>
  <path class="sb" d="M75.5 51.6l1.5.7h.2l1.4-.8c.2-.1.4 0 .4.2l-.2 1.6c0 .1 0 .2.1.2l1.2 1.1c.2.1.1.4-.1.4l-1.6.3c-.1 0-.1.1-.2.1l-.7 1.5c-.1.2-.3.2-.4 0l-.8-1.5c0-.1-.1-.1-.2-.1l-1.6-.2c-.2 0-.3-.3-.1-.4l1.2-1.2c.1-.1.1-.1.1-.2l-.3-1.6c-.3 0-.1-.2.1-.1z"/>
</svg>