<?xml version="1.0" encoding="utf-8"?>
<!-- Generator: Adobe Illustrator 18.0.0, SVG Export Plug-In . SVG Version: 6.00 Build 0)  -->
<!DOCTYPE svg PUBLIC "-//W3C//DTD SVG 1.1//EN" "http://www.w3.org/Graphics/SVG/1.1/DTD/svg11.dtd">
<svg version="1.1" id="Layer_1" xmlns="http://www.w3.org/2000/svg" xmlns:xlink="http://www.w3.org/1999/xlink" x="0px" y="0px"
	 viewBox="0 0 100 100" enable-background="new 0 0 100 100" xml:space="preserve">
<g>
	<g>
		<path fill="#9DD3FF" d="M77.3,52.8c0,14.5-11.8,26.3-26.3,26.3h-9.3c-1.5,0-2.8-1.3-2.8-2.8v-0.9c0-1.5,1.3-2.8,2.8-2.8H51
			c10.9,0,19.8-8.9,19.8-19.8S61.9,33,51,33H33.8l11.8,11.8c1.3,1.3,1.3,3.3,0,4.6c-1.2,1.2-3.4,1.2-4.6,0L23.6,32.1
			c-0.6-0.6-1-1.4-1-2.3c0-0.9,0.3-1.7,1-2.3L41,10c1.2-1.2,3.4-1.2,4.6,0c1.3,1.3,1.3,3.3,0,4.6L33.8,26.5H51
			C65.5,26.5,77.3,38.3,77.3,52.8z"/>
	</g>
</g>
</svg>
