<svg xmlns="http://www.w3.org/2000/svg" viewBox="0 0 78 78">
  <circle cx="39" cy="39" r="39" fill="#528cbf"/>
  <path d="M39.1 60.8c-2.1 0-4.1-.8-5.6-2.3l-14-14c-3.1-3.1-3.1-8.1 0-11.2l14-14C35 17.8 37 17 39.1 17c2.1 0 4.1.8 5.6 2.3 1.5 1.5 2.3 3.5 2.3 5.6s-.8 4.1-2.3 5.6l-.7.6h8.7c4.3 0 7.8 3.5 7.8 7.8s-3.5 7.8-7.8 7.8H44l.6.6c1.5 1.5 2.3 3.5 2.3 5.6 0 2.1-.8 4.1-2.3 5.6-1.4 1.5-3.4 2.3-5.5 2.3z" fill="#fff"/>
  <path d="M52.7 34.6H35.6l6.6-6.6c1.7-1.7 1.7-4.5 0-6.2-1.7-1.7-4.5-1.7-6.2 0l-14 14c-1.7 1.7-1.7 4.5 0 6.2l14 14c1.7 1.7 4.5 1.7 6.2 0 1.7-1.7 1.7-4.5 0-6.2l-6.6-6.6h17.1c2.4 0 4.3-1.9 4.3-4.3s-1.9-4.3-4.3-4.3z" fill="#9cc"/>
</svg>